<svg width="1920" height="994" viewBox="0 0 1920 994" fill="none" xmlns="http://www.w3.org/2000/svg">
<rect width="1920" height="994" fill="#D9D9D9"/>
<path fill-rule="evenodd" clip-rule="evenodd" d="M1586.64 620.45H1587.29C1603.58 620.333 1619.02 617.345 1633.65 611.452L1631.68 618.564L1724.49 618.213L1793.15 370L1700.34 370.351L1683.88 430.28C1672.37 424.788 1658.28 422.067 1641.63 422.133C1564.64 422.434 1517.82 452.882 1501.13 513.496L1496.66 529.605C1493.68 540.456 1492.15 550.321 1492.05 559.219C1491.97 600.218 1523.5 620.634 1586.64 620.45ZM1599.92 562.124C1599.92 558.551 1600.62 554.294 1602.05 549.337L1617.61 493.13C1622.97 473.532 1633.81 463.7 1650.12 463.633C1662.33 463.583 1668.44 469.092 1668.49 480.143C1668.49 483.715 1667.86 487.972 1666.54 492.93L1650.99 549.136C1645.51 568.734 1634.61 578.567 1618.29 578.633C1606.08 578.683 1599.97 573.175 1599.92 562.124ZM1161.67 620.328L1254.48 619.978L1308.48 425.116L1215.67 425.467L1161.67 620.328ZM1323.15 371.781L1230.34 372.132L1219.27 412.146L1312.08 411.795L1323.17 371.781H1323.15ZM440.106 623.068L532.916 622.717L601.591 374.521L508.781 374.871L440.106 623.068ZM126 624.272L327.56 623.504C376.014 623.32 406.329 601.385 418.488 557.715C421.47 546.514 422.936 536.748 422.902 528.435C422.802 504.313 409.527 492.294 383.06 492.394C418.588 492.261 441.724 472.663 452.451 433.6C454.483 426.439 455.482 419.912 455.466 414.019C455.366 388.044 435.611 375.14 396.218 375.29L194.658 376.058L237.865 403.035L187.496 403.218L126 624.255V624.272ZM290.949 428.976L306.906 428.909C327.327 428.826 337.554 434.385 337.604 445.569C337.604 447.539 337.321 449.726 336.721 452.147C332.307 467.738 318.016 475.567 293.848 475.667L277.891 475.734L290.949 428.959V428.976ZM268.396 510.056L284.353 509.989C303.925 509.905 313.735 516.516 313.785 529.771C313.785 532.876 313.269 536.348 312.186 540.154C306.706 560.353 291.882 570.502 267.714 570.602L251.757 570.669L268.38 510.039L268.396 510.056ZM589.818 574.893V574.342L589.802 574.359C589.818 565.812 591.351 556.197 594.416 545.513L626.962 427.725L719.772 427.374L684.91 553.292C683.594 558.133 682.962 562.407 682.962 566.096C683.012 577.063 689.125 582.522 701.334 582.472C717.64 582.405 728.484 572.556 733.847 552.925L768.726 427.174L861.536 426.823L807.536 621.685L714.726 622.035L716.508 615.458C702.017 621.05 682.279 623.888 657.261 623.988C612.488 624.155 590.002 607.796 589.818 574.893ZM1387.33 619.488L1294.52 619.838L1294.5 619.855L1348.52 424.994L1441.33 424.643L1439.55 431.22C1455.01 425.628 1471.06 422.807 1487.74 422.74C1499.26 422.69 1521.48 423.324 1536.34 423.859C1516.17 433.474 1499.83 447.046 1487.55 464.674C1480.97 464.206 1474.33 463.956 1467.6 463.989C1442.83 464.09 1426.56 478.045 1418.81 505.873L1387.33 619.488ZM847.559 621.533L847.573 621.533L847.559 621.583V621.533ZM847.573 621.533L1049.12 620.765C1097.57 620.582 1127.89 598.647 1140.05 554.977C1143.03 543.776 1144.49 534.01 1144.48 525.697C1144.38 501.575 1131.1 489.556 1104.65 489.656C1140.18 489.522 1163.3 469.924 1174.03 430.862C1176.06 423.7 1177.06 417.173 1177.04 411.281C1176.94 385.306 1157.19 372.402 1117.79 372.552L916.234 373.32L956.759 400.296L908.722 400.48L878.29 510.456L891.632 506.85C894.564 505.622 897.643 504.733 900.722 503.845C906.477 502.183 912.231 500.522 917.017 496.65C919.765 494.731 920.848 492.794 917.899 490.006C917.157 489.296 916.814 488.194 916.473 487.097L916.472 487.096C916.316 486.594 916.161 486.094 915.967 485.633C914.925 484.532 914.703 483.176 914.481 481.82C914.31 480.771 914.138 479.721 913.585 478.789C913.502 477.47 913.419 476.134 913.336 474.799L912.886 472.846C911.793 470.444 912.444 468.176 913.096 465.906C913.527 464.404 913.958 462.902 913.885 461.361C913.136 460.927 912.769 460.292 912.753 459.474C911.08 456.844 911.765 454.15 912.454 451.438L912.486 451.311C912.328 448.213 914.035 445.912 915.737 443.619C916.18 443.021 916.623 442.424 917.033 441.813C917.065 441.519 917.093 441.222 917.12 440.926C917.399 437.94 917.677 434.957 921.98 434.501C922.813 434.418 923.03 434.251 923.213 433.433C924.379 428.108 926.378 427.123 931.441 429.193C932.624 426.689 934.04 425.654 936.605 427.991C937.686 428.971 938.945 429.781 940.203 430.589C940.787 430.964 941.37 431.338 941.935 431.73C945.549 432.979 949.314 433.515 953.081 434.051C955.807 434.439 958.535 434.827 961.206 435.486C966.232 435.387 970.98 436.709 975.725 438.03L975.881 438.073C983.31 438.591 989.739 441.145 994.719 446.604C997.301 444.651 999.899 442.697 1002.5 440.744C1011.48 431.98 1021.19 424.552 1034.99 424.702C1040.26 423.851 1044.86 425.353 1049.05 428.325C1049.76 428.154 1050.47 427.953 1051.17 427.751C1054.28 426.866 1057.41 425.977 1060.66 427.69C1058.55 431.436 1054.99 433.617 1051.41 435.806L1051.38 435.824L1050.95 436.087C1049.97 437.089 1049.49 438.274 1049.62 439.643C1049.85 444.734 1048.15 449.392 1046.09 453.965C1045.15 456.591 1044.2 459.217 1043.25 461.842C1042.31 464.458 1041.36 467.075 1040.42 469.691C1039.97 472.779 1040.71 475.433 1043.07 477.787C1045.47 480.191 1046.8 483.279 1047.97 486.401C1049.34 488.434 1050.64 490.516 1051.93 492.599L1051.93 492.599C1054.61 496.892 1057.28 501.186 1060.61 505.064C1063.99 508.77 1066.43 513.043 1068.51 517.5C1070.9 521.141 1073.27 524.79 1075.65 528.44L1075.65 528.443C1081.07 536.776 1086.5 545.111 1092.09 553.341C1098.06 562.122 1104.49 570.635 1112.4 577.98C1112.81 578.364 1113.36 578.724 1113.91 579.089C1115.52 580.154 1117.19 581.266 1116.03 583.155C1114.89 585.032 1112.63 584.171 1110.61 583.401C1110.19 583.24 1109.77 583.082 1109.38 582.955C1107.91 582.576 1106.43 582.209 1104.99 581.853L1104.99 581.852L1104.19 581.653C1103.58 582.452 1103.87 583.022 1104.15 583.571C1104.23 583.733 1104.31 583.893 1104.37 584.057C1104.4 584.143 1104.43 584.23 1104.46 584.317C1104.83 585.333 1105.23 586.433 1104.37 587.279C1103.5 588.117 1102.44 587.691 1101.46 587.301L1101.46 587.301C1101.31 587.241 1101.17 587.182 1101.02 587.128C1099.11 586.461 1097.21 585.709 1095.71 584.29C1093.46 583.612 1091.66 582.257 1089.87 580.902C1089.32 580.489 1088.77 580.076 1088.21 579.683C1087.55 580.626 1087.8 581.553 1088.05 582.481L1088.05 582.481C1088.17 582.934 1088.3 583.386 1088.31 583.84C1088.46 584.095 1088.64 584.35 1088.82 584.607C1089.6 585.728 1090.4 586.885 1089.26 588.23C1087.95 589.783 1085.95 589.833 1084.06 589.282C1081.62 588.581 1079.17 587.779 1077.54 585.676C1076.84 584.991 1076.14 584.302 1075.44 583.612C1074.75 582.924 1074.05 582.237 1073.35 581.553C1073.35 581.926 1073.34 582.3 1073.33 582.675C1073.3 583.424 1073.28 584.174 1073.35 584.908C1073.97 589.966 1073.45 590.35 1067.82 588.931C1065.39 588.282 1063.6 586.75 1061.8 585.215C1060.83 584.382 1059.86 583.548 1058.78 582.855C1057.3 585.643 1055.13 586.828 1051.92 585.476C1047.91 583.913 1045.22 580.924 1042.53 577.94L1042.53 577.939C1041.92 577.257 1041.3 576.575 1040.67 575.91L1040.57 576.004C1038.26 578.027 1035.94 580.051 1032.5 577.947C1029.02 577.463 1026.73 575.627 1025.65 572.438C1024.67 571.136 1023.14 571.153 1021.6 571.169C1019.87 571.186 1018.12 571.203 1017.19 569.283C1015.76 568.448 1014.91 567.196 1014.27 565.761C1013.14 564.406 1011.45 564.297 1009.76 564.188C1007.78 564.062 1005.81 563.935 1004.73 561.821C1003.3 560.407 1002.7 558.626 1002.09 556.842L1002.09 556.84C1001.95 556.435 1001.81 556.029 1001.66 555.628C1001.08 555.628 1000.51 555.915 999.937 556.202L999.849 556.246C998.7 556.83 997.534 557.414 996.285 555.845C994.567 554.755 993.932 553.037 993.297 551.319C992.706 549.722 992.115 548.125 990.655 547.031C988.29 547.048 986.091 546.63 984.925 544.377C983.893 542.39 982.21 542.49 980.528 542.59L980.52 542.591C979.607 542.641 978.71 542.69 977.88 542.407C969.235 539.469 960.873 536.03 953.061 531.423C950.963 530.571 949.597 529.102 948.947 527.032C948.014 526.682 947.082 526.331 946.149 525.964C944.518 524.887 943.943 523.255 943.369 521.625C943.205 521.158 943.04 520.692 942.851 520.238C942.301 520.021 941.735 519.821 941.169 519.62C940.802 519.136 940.586 518.619 940.719 518.051C938.249 515.821 936.025 516.883 933.802 517.943C932.697 518.471 931.593 518.998 930.458 519.12C923.019 523.282 916.447 528.518 909.875 533.754L909.874 533.754L909.873 533.755C906.853 536.162 903.832 538.569 900.727 540.871C897.522 543.177 894.313 545.488 891.104 547.798C887.925 550.087 884.746 552.375 881.572 554.66C880.911 555.013 880.251 555.375 879.596 555.734L879.587 555.739C879.286 555.903 878.987 556.067 878.69 556.229C874.792 559.317 871.361 557.331 868.446 554.927C868.113 554.643 867.784 554.359 867.455 554.075C867.126 553.792 866.797 553.508 866.464 553.224L847.573 621.533Z" fill="url(#paint0_linear_2699_12841)"/>
<defs>
<linearGradient id="paint0_linear_2699_12841" x1="1170.5" y1="344.5" x2="1170.5" y2="624" gradientUnits="userSpaceOnUse">
<stop stop-color="#EAEAEA" stop-opacity="0"/>
<stop offset="1" stop-color="#EBEBEB"/>
</linearGradient>
</defs>
</svg>
