<svg width="116" height="24" viewBox="0 0 116 24" fill="none" xmlns="http://www.w3.org/2000/svg">
<g clip-path="url(#clip0_2182_396)">
<path fill-rule="evenodd" clip-rule="evenodd" d="M31.2896 23.9381H31.9037C31.9183 23.2743 32.3134 22.0354 32.3134 21.3378H32.4504C32.5065 21.5786 32.6323 21.7643 32.7333 22.0118L33.6798 23.937H34.2939C34.3567 23.1764 34.908 20.818 34.908 20.2419H34.2939C34.2939 20.611 34.1513 21.1691 34.0895 21.5426C34.0177 21.9781 33.8841 22.4259 33.8841 22.9108C33.7 22.7758 33.6337 22.5485 33.5203 22.3179L32.5189 20.2419H31.9048C31.8419 21.0025 31.2907 23.3609 31.2907 23.937L31.2896 23.9381Z" fill="white"/>
<path fill-rule="evenodd" clip-rule="evenodd" d="M40.9839 22.4326C40.9839 23.6568 42.0314 24.1789 43.0822 23.9201C43.8849 23.7232 44.6573 22.9311 44.7382 21.9533H42.6904C42.6836 22.2537 42.6444 22.166 42.6219 22.4326H43.9871C43.6705 23.0312 43.5459 23.3902 42.5534 23.3902C41.1018 23.3902 41.3824 20.7899 43.1675 20.7899C43.6716 20.7899 43.8142 21.0093 43.9871 21.3367H44.7382C44.2835 19.3789 40.9839 20.1632 40.9839 22.4315V22.4326Z" fill="white"/>
<path fill-rule="evenodd" clip-rule="evenodd" d="M105.772 23.4588C104.694 23.4588 104.825 21.5426 106.182 21.5426C107.223 21.5426 106.912 23.4588 105.772 23.4588ZM107.002 21.3378C105.56 20.3702 104.407 21.6068 104.407 22.8433C104.407 23.6602 105.2 24.53 106.592 23.5961C106.585 23.9122 106.428 23.8774 106.666 23.9392C106.703 23.9482 107.131 23.9392 107.206 23.9392C107.206 23.6433 107.824 20.1767 107.889 20.0394H107.206C107.206 20.3814 107.073 21.034 107.002 21.339V21.3378Z" fill="white"/>
<path fill-rule="evenodd" clip-rule="evenodd" d="M58.4609 23.4588C58.4778 23.2596 58.5507 22.9885 58.5788 22.8242L58.9392 20.7899C59.6824 20.7899 60.9533 20.6785 60.5491 22.2661C60.2393 23.4858 59.4612 23.4577 58.4609 23.4577V23.4588ZM57.7783 23.9381H59.1435C61.3204 23.9381 62.5082 20.243 59.3478 20.243H58.3924C58.3857 20.5311 58.2959 20.8191 58.2465 21.1229C58.1982 21.42 58.1387 21.7238 58.0803 22.0512L57.7783 23.9381Z" fill="white"/>
<path fill-rule="evenodd" clip-rule="evenodd" d="M46.173 22.0231H45.9001C45.9001 21.5797 46.0697 21.1544 46.1045 20.7235C46.6355 20.7235 47.3338 20.6819 47.3338 21.2028C47.3338 21.8667 46.8398 22.0242 46.173 22.0242V22.0231ZM44.9436 23.9381H45.5577C45.5678 23.4655 45.762 22.9963 45.762 22.5013C46.3458 22.5013 46.2224 22.4731 46.3436 22.7398C46.4121 22.8917 46.4345 22.9885 46.494 23.137C46.6063 23.4217 46.7175 23.6422 46.7871 23.9381H47.5381L46.924 22.4326C48.1152 22.1547 48.5946 20.243 46.6512 20.243H45.5588L45.0806 22.9795C45.0323 23.2743 44.9447 23.6208 44.9447 23.9381H44.9436Z" fill="white"/>
<path fill-rule="evenodd" clip-rule="evenodd" d="M70.2717 22.0231H69.9989C69.9989 21.5797 70.1673 21.1544 70.2032 20.7235C70.7342 20.7235 71.4326 20.6819 71.4326 21.2028C71.4326 21.8667 70.9386 22.0242 70.2717 22.0242V22.0231ZM69.0435 23.9381H69.6576C69.6677 23.4655 69.8619 22.9963 69.8619 22.5013C70.485 22.5013 70.3042 22.4079 70.5928 23.137C70.705 23.4217 70.8162 23.6422 70.8858 23.9381H71.6369L71.0228 22.4326C71.254 22.3786 71.5437 22.2346 71.6885 22.0737C72.1971 21.51 72.4183 20.243 70.75 20.243H69.6576C69.6508 20.5311 69.561 20.8191 69.5116 21.1229C69.4622 21.42 69.4038 21.7238 69.3455 22.0512L69.0435 23.9381Z" fill="white"/>
<path fill-rule="evenodd" clip-rule="evenodd" d="M50.1328 21.133H50.2697C50.2697 21.6788 50.4741 22.1243 50.4741 22.7072H49.3817C49.5074 22.1648 50.0025 21.6923 50.1328 21.133ZM48.085 23.9381H48.6991C49.1785 23.0301 48.7676 23.1854 50.611 23.1854C50.6312 24.1058 50.7592 23.9381 51.3621 23.9381C51.3621 23.6006 51.2712 23.3204 51.2162 22.9896L50.8659 21.0824C50.702 20.2363 50.8962 20.2442 50.1328 20.2442C49.943 20.2442 49.4894 21.2017 49.3132 21.5437C49.0819 21.9882 48.1456 23.6782 48.085 23.9392V23.9381Z" fill="white"/>
<path fill-rule="evenodd" clip-rule="evenodd" d="M77.5085 22.4326C77.5085 24.3904 80.1255 24.4805 80.99 22.8433C80.4837 22.8433 80.3579 22.7488 80.0829 23.0279C79.736 23.38 79.6069 23.3902 79.0792 23.3902C77.6275 23.3902 77.9082 20.7899 79.6933 20.7899C80.1974 20.7899 80.3389 21.0093 80.5129 21.3367H81.264C80.8093 19.3789 77.5097 20.1632 77.5097 22.4315L77.5085 22.4326Z" fill="white"/>
<path fill-rule="evenodd" clip-rule="evenodd" d="M84.6084 21.1331C84.6084 21.9207 84.7297 22.0152 85.7603 22.4416C86.5204 22.7567 86.5496 23.4599 85.4954 23.4599C85.1316 23.4599 85.025 23.2754 85.0171 22.9131H84.403C84.403 23.3001 84.376 23.5094 84.7701 23.7772C85.4201 24.2194 86.929 24.0563 86.929 22.8445C86.929 21.8791 85.2225 21.8667 85.2225 21.2703C85.2225 20.6008 86.2812 20.4715 86.4508 21.2017H87.0649C87.0649 20.8641 86.9919 20.6706 86.8055 20.503C86.2262 19.9809 84.6073 20.207 84.6073 21.1331H84.6084Z" fill="white"/>
<path fill-rule="evenodd" clip-rule="evenodd" d="M63.4445 21.1331C63.4445 21.9207 63.5657 22.0152 64.5964 22.4416C64.8063 22.5283 65.0892 22.6397 65.124 22.93C65.188 23.4723 64.6345 23.4599 64.3325 23.4599C63.9688 23.4599 63.8621 23.2754 63.8543 22.9131H63.2401C63.2401 23.3001 63.2132 23.5094 63.6073 23.7772C64.2573 24.2194 65.7662 24.0563 65.7662 22.8444C65.7662 21.879 64.0597 21.8667 64.0597 21.2703C64.0597 20.6008 65.1184 20.4715 65.2891 21.2017H65.9032C65.9032 19.7356 63.4456 20.0923 63.4456 21.1331H63.4445Z" fill="white"/>
<path fill-rule="evenodd" clip-rule="evenodd" d="M90.0018 21.9544C90.0344 21.5651 90.1747 21.1128 90.2061 20.7235C90.7372 20.7235 91.4355 20.6819 91.4355 21.2028C91.4355 22.1108 90.5441 21.9556 90.0018 21.9556V21.9544ZM89.0464 23.9381H89.6605C89.6672 23.6253 89.7694 23.2214 89.8222 22.8692C89.9749 21.8554 90.6024 22.8917 91.5758 22.1637C92.1012 21.771 92.6132 20.2442 90.7529 20.2442H89.6605C89.6538 20.5322 89.5639 20.8203 89.5145 21.1241C89.4663 21.4211 89.4068 21.7249 89.3484 22.0523L89.0464 23.9392V23.9381Z" fill="white"/>
<path fill-rule="evenodd" clip-rule="evenodd" d="M73.4129 23.9381C74.3739 23.9381 74.0259 24.1823 75.1419 22.1817C75.2362 22.0129 75.2766 21.8959 75.3709 21.7272C75.4809 21.5302 75.5337 21.4627 75.6426 21.2467C75.8087 20.9193 76.0602 20.6031 76.1433 20.243H75.5292C75.262 20.7494 75.0206 21.2535 74.7321 21.7699L73.8912 23.2529C73.8822 22.8264 73.5813 21.4807 73.4915 20.917C73.3725 20.1755 73.5128 20.2419 72.7314 20.2419C72.7382 20.5311 72.8359 20.8675 72.8965 21.1713C73.02 21.7913 73.414 23.5308 73.414 23.937L73.4129 23.9381Z" fill="white"/>
<path fill-rule="evenodd" clip-rule="evenodd" d="M54.9795 23.9381H57.0273C57.0273 23.6681 57.0486 23.6602 57.0958 23.4588H55.6621C55.6924 23.0954 55.835 22.6779 55.8664 22.2954H57.1631V21.816H55.9349C56.0045 21.5145 56.1123 21.0464 56.1392 20.7212H57.5729C57.5796 20.4208 57.6189 20.5086 57.6414 20.2419H55.5936L55.1153 22.9783C55.0671 23.2731 54.9795 23.6197 54.9795 23.937V23.9381Z" fill="white"/>
<path fill-rule="evenodd" clip-rule="evenodd" d="M66.2446 23.9381H68.2924C68.2924 23.6681 68.3138 23.6602 68.3609 23.4588H66.9272C66.9575 23.0954 67.1001 22.6779 67.1327 22.2954H68.4294V21.816H67.2C67.2696 21.5145 67.3774 21.0464 67.4044 20.7212H68.8381C68.8448 20.4208 68.8841 20.5086 68.9065 20.2419H66.8587L66.3805 22.9783C66.3322 23.2731 66.2446 23.6197 66.2446 23.937V23.9381Z" fill="white"/>
<path fill-rule="evenodd" clip-rule="evenodd" d="M81.5369 23.9381H83.5847C83.5847 23.6681 83.606 23.6602 83.6531 23.4588H82.2195C82.2498 23.0954 82.3924 22.6779 82.4249 22.2954H83.7216V21.816H82.4923C82.5619 21.5145 82.6697 21.0464 82.6966 20.7212H84.1303C84.137 20.4208 84.1763 20.5086 84.1988 20.2419H82.151C82.0881 21.0025 81.5369 23.3609 81.5369 23.937V23.9381Z" fill="white"/>
<path fill-rule="evenodd" clip-rule="evenodd" d="M38.1167 23.9381H40.1645C40.1645 23.6681 40.1858 23.6602 40.233 23.4588H38.7993C38.8296 23.0954 38.9722 22.6779 39.0036 22.2954H40.3003V21.816H39.071C39.1406 21.5145 39.2484 21.0464 39.2764 20.7212H40.7101C40.7169 20.4208 40.7561 20.5086 40.7786 20.2419H38.7308C38.6679 21.0025 38.1167 23.3609 38.1167 23.937V23.9381Z" fill="white"/>
<path fill-rule="evenodd" clip-rule="evenodd" d="M93.0747 23.9381C93.8695 23.9381 93.6068 24.0675 94.4623 22.5227C94.6139 22.2492 94.7363 22.0422 94.8732 21.771C95.018 21.4852 95.1909 21.294 95.2594 20.9958H94.6453C94.4298 21.3187 93.5743 23.1561 93.3486 23.3215C93.3486 22.634 93.0073 21.5426 93.0073 20.9958H92.3247C92.3438 21.2321 92.4179 21.4999 92.4673 21.7429C92.5201 22.0051 92.5616 22.2447 92.6267 22.5407C92.684 22.7972 92.7435 23.0537 92.7861 23.2709C92.84 23.5499 92.8164 23.9381 93.0758 23.9381H93.0747Z" fill="white"/>
<path fill-rule="evenodd" clip-rule="evenodd" d="M35.4546 20.7224H36.4111L35.8644 23.9381C36.4695 23.9381 36.4976 24.0833 36.5717 23.5522C36.6132 23.2518 36.6918 22.8669 36.7423 22.5598C36.8041 22.1907 36.8535 21.9589 36.9175 21.5719C37.0847 20.5525 36.84 20.7212 38.0491 20.7212C38.0559 20.4208 38.0952 20.5086 38.1176 20.2419H35.5916C35.5276 20.3769 35.4928 20.5581 35.4546 20.7212V20.7224Z" fill="white"/>
<path fill-rule="evenodd" clip-rule="evenodd" d="M52.3175 20.7224H53.2741L52.7273 23.9381C53.3324 23.9381 53.3605 24.0833 53.4346 23.5522L53.8534 21.0982C53.9308 20.6402 53.8085 20.7224 54.911 20.7224C54.9177 20.4219 54.957 20.5097 54.9794 20.243H52.4534C52.3894 20.3781 52.3546 20.5592 52.3164 20.7224H52.3175Z" fill="white"/>
<path fill-rule="evenodd" clip-rule="evenodd" d="M103.029 20.9947C102.533 20.9969 102.679 21.0464 102.565 21.5437H102.906C102.887 22.4124 102.138 23.9381 103.179 23.9381H103.861C103.861 23.6681 103.883 23.6602 103.93 23.4588C103.491 23.4588 103.541 23.4779 103.247 23.3215C103.26 22.7376 103.52 22.148 103.52 21.5426H104.271C104.271 21.2163 104.317 21.2591 104.34 20.9958H103.657C103.662 20.7944 103.729 20.4456 103.794 20.3117H103.111L103.031 20.9935L103.029 20.9947Z" fill="white"/>
<path fill-rule="evenodd" clip-rule="evenodd" d="M95.8612 20.9947C95.3649 20.9969 95.5109 21.0464 95.3953 21.5437H95.7366C95.7175 22.4124 94.9686 23.9381 96.0094 23.9381H96.692C96.692 23.6681 96.7133 23.6602 96.7605 23.4588C96.3226 23.4588 96.3731 23.4779 96.0779 23.3215C96.0913 22.7376 96.3507 22.148 96.3507 21.5426H97.1018C97.1018 21.2163 97.1478 21.2591 97.1702 20.9958H96.4876C96.4921 20.7944 96.5595 20.4456 96.6246 20.3117H95.942L95.8612 20.9935V20.9947Z" fill="white"/>
<path fill-rule="evenodd" clip-rule="evenodd" d="M100.038 23.9381H101.881C101.888 23.6377 101.927 23.7255 101.95 23.4588H100.72C100.74 23.2135 100.816 22.9615 100.857 22.706L101.139 21.0723C101.184 20.8045 101.267 20.5615 101.267 20.2419H100.653L100.039 23.937L100.038 23.9381Z" fill="white"/>
<path fill-rule="evenodd" clip-rule="evenodd" d="M76.0063 23.9381H76.6205L77.2346 20.243H76.6205C76.6137 20.5311 76.5239 20.8191 76.4745 21.1229C76.4251 21.42 76.3667 21.7238 76.3084 22.0512L76.0063 23.9381Z" fill="white"/>
<path fill-rule="evenodd" clip-rule="evenodd" d="M29.9243 23.9381H30.5384C30.5497 23.4374 31.1413 20.7516 31.1525 20.243H30.5384L29.9243 23.9381Z" fill="white"/>
<path fill-rule="evenodd" clip-rule="evenodd" d="M107.82 23.5961C107.82 24.1688 108.64 24.0518 108.64 23.5961C108.64 23.4115 108.607 23.407 108.571 23.254C108.413 23.2158 108.269 23.0954 108.009 23.3058C107.946 23.3564 107.82 23.5376 107.82 23.5961Z" fill="white"/>
<path fill-rule="evenodd" clip-rule="evenodd" d="M97.1018 23.5961C97.1018 23.6838 97.1445 23.7761 97.1961 23.8436C97.4947 24.2363 97.9214 23.7862 97.9214 23.5961C97.9214 23.4059 97.8888 23.407 97.8529 23.254C97.6946 23.2158 97.5509 23.0954 97.2904 23.3058C97.2275 23.3564 97.1018 23.5376 97.1018 23.5961Z" fill="white"/>
<path fill-rule="evenodd" clip-rule="evenodd" d="M0 17.9679L13.5857 17.9162C16.8516 17.9038 18.8949 16.4253 19.7145 13.4819C19.9155 12.7269 20.0142 12.0686 20.012 11.5083C20.0053 9.88242 19.1105 9.07229 17.3265 9.07904C19.7212 9.07004 21.2806 7.74908 22.0037 5.11617C22.1406 4.63347 22.208 4.19353 22.2069 3.79634C22.2001 2.04557 20.8686 1.17581 18.2134 1.18593L4.62774 1.23769L7.54001 3.05597L4.14498 3.06835L0 17.9668V17.9679ZM11.118 4.8045L12.1936 4.8C13.57 4.79437 14.2593 5.16905 14.2627 5.92292C14.2627 6.05569 14.2436 6.20309 14.2032 6.36624C13.9057 7.41716 12.9424 7.94486 11.3134 7.95161L10.2378 7.95611L11.118 4.80337V4.8045ZM9.5979 10.2695L10.6734 10.265C11.9926 10.2593 12.6539 10.7049 12.6572 11.5983C12.6572 11.8076 12.6224 12.0416 12.5495 12.2982C12.1801 13.6596 11.1809 14.3437 9.55187 14.3505L8.47633 14.355L9.59678 10.2684L9.5979 10.2695Z" fill="white"/>
<path fill-rule="evenodd" clip-rule="evenodd" d="M21.1716 17.8869L27.4273 17.8633L32.0561 1.13418L25.8005 1.15781L21.1716 17.8869Z" fill="white"/>
<path fill-rule="evenodd" clip-rule="evenodd" d="M31.2626 14.6025V14.6397C31.2749 16.8574 32.7906 17.9601 35.8084 17.9488C37.4947 17.9421 38.8251 17.7508 39.8018 17.3738L39.6817 17.8172L45.9373 17.7935L49.5771 4.65936L43.3214 4.68298L40.9705 13.1589C40.609 14.4821 39.8781 15.146 38.779 15.1505C37.9561 15.1539 37.5441 14.7859 37.5407 14.0467C37.5407 13.798 37.5834 13.51 37.672 13.1837L40.0218 4.69649L33.7662 4.72011L31.5725 12.6594C31.3659 13.3795 31.2626 14.0276 31.2615 14.6037L31.2626 14.6025Z" fill="white"/>
<path fill-rule="evenodd" clip-rule="evenodd" d="M69.8069 17.7024L76.0625 17.6788L79.7023 4.54458L73.4467 4.56821L69.8069 17.7024ZM80.6914 0.949646L74.4357 0.973275L73.6892 3.67032L79.9448 3.64669L80.6925 0.949646H80.6914Z" fill="white"/>
<path fill-rule="evenodd" clip-rule="evenodd" d="M78.7614 17.6686L85.017 17.645L87.1389 9.98706C87.661 8.11139 88.7578 7.17075 90.4273 7.164C90.8808 7.16175 91.3288 7.17862 91.7723 7.21013C92.5997 6.02194 93.701 5.10718 95.0606 4.45907C94.0592 4.42307 92.5615 4.38031 91.7846 4.38369C90.6608 4.38819 89.5785 4.57834 88.5367 4.95528L88.6568 4.51196L82.4011 4.53559L78.7603 17.6698L78.7614 17.6686Z" fill="white"/>
<path fill-rule="evenodd" clip-rule="evenodd" d="M98.4512 17.7103H98.495C99.593 17.7024 100.634 17.501 101.619 17.1038L101.487 17.5831L107.743 17.5595L112.37 0.829254L106.115 0.852883L105.006 4.89226C104.23 4.52208 103.28 4.33868 102.157 4.34318C96.9681 4.36343 93.8123 6.41575 92.6873 10.5013L92.3864 11.5871C92.1855 12.3184 92.0822 12.9834 92.0755 13.5831C92.0698 16.3466 94.1951 17.7226 98.4512 17.7103ZM99.346 13.7789C99.346 13.5381 99.3932 13.2512 99.4897 12.917L100.538 9.12855C100.9 7.80759 101.631 7.14487 102.73 7.14036C103.553 7.13699 103.965 7.5083 103.968 8.25316C103.968 8.49395 103.925 8.78087 103.837 9.11505L102.788 12.9035C102.419 14.2245 101.685 14.8872 100.584 14.8917C99.7614 14.8951 99.3494 14.5238 99.346 13.7789Z" fill="white"/>
<path fill-rule="evenodd" clip-rule="evenodd" d="M57.6099 5.33108C57.6099 5.33108 57.7558 5.53811 58.0848 5.33671C58.4137 5.1353 58.0062 5.04304 58.0062 5.04304C58.0062 5.04304 57.565 5.09817 57.6099 5.33108Z" fill="white"/>
<path fill-rule="evenodd" clip-rule="evenodd" d="M48.635 17.7834L62.2207 17.7316C65.4866 17.7193 67.5299 16.2408 68.3495 13.2973C68.5505 12.5423 68.6493 11.8841 68.6481 11.3238C68.6414 9.69789 67.7466 8.88776 65.9638 8.89452C68.3585 8.88551 69.9168 7.56456 70.6398 4.93165C70.7768 4.44895 70.8441 4.009 70.843 3.61181C70.8363 1.86104 69.5047 0.991281 66.8496 1.00141L53.2639 1.05317L55.9954 2.87145L52.7575 2.88383L50.7064 10.2965C51.0061 10.2155 51.3059 10.1345 51.6057 10.0534C52.1726 9.81603 52.8215 9.76653 53.3166 9.36596C53.5019 9.23657 53.5749 9.10605 53.3761 8.91814C53.3032 8.84838 53.2874 8.72236 53.2459 8.62335C53.1213 8.4917 53.1707 8.30605 53.0854 8.16203C53.0797 8.07314 53.0741 7.98312 53.0685 7.89311C53.0584 7.84923 53.0483 7.80535 53.0382 7.76146C52.9158 7.49255 53.1179 7.24838 53.1056 6.98734C53.055 6.95809 53.0304 6.91533 53.0292 6.8602C52.9147 6.68017 52.9641 6.49564 53.0113 6.30999C52.9978 6.0467 53.1842 5.86892 53.3178 5.66976C53.3413 5.45035 53.3324 5.21069 53.6512 5.17693C53.7073 5.17131 53.7219 5.16006 53.7343 5.10492C53.8129 4.74599 53.9476 4.67961 54.2889 4.81913C54.3686 4.65035 54.464 4.58059 54.6369 4.73812C54.7436 4.83488 54.8761 4.90689 54.9962 4.99016C55.4161 5.1353 55.8663 5.13755 56.2951 5.24332C56.6376 5.23657 56.9609 5.32771 57.2842 5.41772C57.785 5.4526 58.2183 5.62475 58.554 5.99269C58.728 5.86104 58.9032 5.7294 59.0783 5.59775C59.6834 5.00703 60.338 4.50633 61.2687 4.51646C61.6234 4.45907 61.9333 4.56034 62.2162 4.76062C62.4733 4.69874 62.7293 4.57609 62.9987 4.71786C62.8505 4.98115 62.5957 5.12968 62.3442 5.28383C62.278 5.35134 62.2454 5.43122 62.2544 5.52349C62.2701 5.86667 62.1556 6.18059 62.0164 6.48889C61.8895 6.84219 61.7615 7.1955 61.6347 7.5488C61.6044 7.75696 61.6538 7.93587 61.8132 8.09452C61.9748 8.25654 62.0647 8.4647 62.1433 8.67511C62.4262 9.0948 62.6619 9.54487 62.9954 9.93305C63.2233 10.1828 63.3872 10.4709 63.5275 10.7713C64.0563 11.5769 64.575 12.3893 65.1173 13.1871C65.5192 13.7789 65.9525 14.3527 66.4858 14.8478C66.5958 14.9491 66.8361 15.0256 66.7306 15.1966C66.6374 15.3496 66.4342 15.2326 66.2826 15.1831C66.1647 15.1527 66.0457 15.1235 65.9323 15.0954C65.8796 15.1651 65.9278 15.209 65.9447 15.2574C65.9705 15.3305 66.0076 15.4127 65.9447 15.4745C65.8773 15.5398 65.792 15.4914 65.719 15.4644C65.5899 15.4194 65.4619 15.3688 65.3609 15.2731C65.1633 15.2135 65.0173 15.0762 64.8557 14.9626C64.7894 15.0571 64.859 15.1494 64.8624 15.2428C64.9174 15.335 65.0207 15.4273 64.9264 15.5387C64.8377 15.6433 64.703 15.6467 64.5761 15.6096C64.4111 15.5623 64.2461 15.5083 64.136 15.3665C64.0417 15.2743 63.9485 15.1809 63.8542 15.0886C63.8542 15.164 63.8464 15.2405 63.8542 15.3148C63.8958 15.6557 63.861 15.6816 63.4815 15.5859C63.2278 15.5184 63.0785 15.3091 62.8719 15.1764C62.772 15.3643 62.626 15.4442 62.4093 15.353C62.077 15.2236 61.8794 14.9491 61.6515 14.7083C61.4932 14.8467 61.336 14.9896 61.1003 14.8456C60.8656 14.8129 60.7118 14.6892 60.6388 14.4743C60.5726 14.3865 60.4693 14.3876 60.366 14.3887C60.2493 14.3899 60.1314 14.391 60.0685 14.2616C59.972 14.2053 59.9147 14.121 59.872 14.0242C59.707 13.8262 59.3635 14.0231 59.2287 13.7587C59.1109 13.6416 59.076 13.4875 59.0222 13.3412C58.9806 13.3412 58.9402 13.3626 58.8998 13.3828C58.8223 13.4222 58.7437 13.4616 58.6595 13.3558C58.4361 13.2141 58.4844 12.9148 58.2801 12.7617C58.1206 12.7629 57.9724 12.7347 57.8939 12.5828C57.8242 12.4489 57.7109 12.4557 57.5975 12.4624C57.5357 12.4658 57.4751 12.4692 57.419 12.4501C56.8363 12.252 56.2727 12.0203 55.7461 11.7097C55.6047 11.6523 55.5126 11.5533 55.4688 11.4138C55.406 11.3902 55.3431 11.3665 55.2802 11.3418C55.1388 11.2484 55.1152 11.0931 55.0579 10.9558C55.0209 10.9412 54.9827 10.9277 54.9445 10.9142C54.9198 10.8816 54.9052 10.8467 54.9142 10.8084C54.665 10.5834 54.4528 10.8557 54.2227 10.8805C53.4907 11.29 52.8833 11.8537 52.2186 12.3466C51.7887 12.656 51.3575 12.9665 50.9275 13.2759C50.8624 13.3108 50.7973 13.3468 50.7333 13.3817C50.4706 13.5899 50.2393 13.456 50.0429 13.294C49.998 13.2557 49.9542 13.2174 49.9093 13.1792L48.635 17.7868V17.7834Z" fill="white"/>
<path fill-rule="evenodd" clip-rule="evenodd" d="M49.6989 7.20225L49.697 7.19662L49.6989 7.20225Z" fill="white"/>
<path d="M114.533 0C114.78 0 115.02 0.0630099 115.256 0.190155C115.49 0.316174 115.673 0.498453 115.805 0.73474C115.936 0.971027 116.001 1.21744 116.001 1.47398C116.001 1.73052 115.937 1.97243 115.807 2.20647C115.678 2.44163 115.497 2.62278 115.264 2.75218C115.03 2.8827 114.786 2.94684 114.533 2.94684C114.279 2.94684 114.034 2.8827 113.801 2.75218C113.567 2.62278 113.386 2.44163 113.256 2.20647C113.126 1.97243 113.062 1.72827 113.062 1.47398C113.062 1.21969 113.128 0.972152 113.26 0.73474C113.392 0.498453 113.575 0.3173 113.81 0.190155C114.044 0.0630099 114.285 0 114.533 0ZM114.533 0.244163C114.326 0.244163 114.124 0.298172 113.929 0.403938C113.733 0.509705 113.581 0.661603 113.47 0.858509C113.36 1.05541 113.305 1.26132 113.305 1.47398C113.305 1.68664 113.36 1.8903 113.467 2.08383C113.575 2.27848 113.727 2.43038 113.922 2.5384C114.116 2.64754 114.321 2.70155 114.533 2.70155C114.745 2.70155 114.947 2.64641 115.142 2.5384C115.337 2.43038 115.488 2.27848 115.596 2.08383C115.704 1.88917 115.758 1.68664 115.758 1.47398C115.758 1.26132 115.703 1.05541 115.593 0.858509C115.483 0.661603 115.33 0.509705 115.133 0.403938C114.937 0.298172 114.737 0.244163 114.532 0.244163H114.533ZM113.887 2.28636V0.703235H114.431C114.617 0.703235 114.751 0.717862 114.834 0.747117C114.918 0.776371 114.983 0.827004 115.033 0.900141C115.083 0.972152 115.108 1.04979 115.108 1.13193C115.108 1.24669 115.066 1.34796 114.983 1.43347C114.901 1.51899 114.791 1.56737 114.654 1.57862C114.71 1.60225 114.755 1.62925 114.789 1.66188C114.853 1.72377 114.93 1.82841 115.022 1.97581L115.215 2.28523H114.905L114.764 2.03544C114.654 1.83854 114.564 1.71589 114.496 1.66639C114.45 1.63038 114.381 1.61238 114.291 1.6135H114.141V2.28523H113.886L113.887 2.28636ZM114.142 1.39522H114.452C114.6 1.39522 114.701 1.37271 114.755 1.32883C114.809 1.28495 114.836 1.22644 114.836 1.15443C114.836 1.1083 114.822 1.06554 114.797 1.02954C114.771 0.992405 114.735 0.965401 114.689 0.947398C114.643 0.929395 114.557 0.920394 114.432 0.920394H114.141V1.39634L114.142 1.39522Z" fill="white"/>
</g>
<defs>
<clipPath id="clip0_2182_396">
<rect width="116" height="24" fill="white"/>
</clipPath>
</defs>
</svg>
