<svg width="39" height="30" viewBox="0 0 39 30" fill="none" xmlns="http://www.w3.org/2000/svg">
<path fill-rule="evenodd" clip-rule="evenodd" d="M0 29.994L23.8582 29.9015C29.5935 29.8793 33.1818 27.2369 34.6211 21.9762C34.974 20.6268 35.1475 19.4504 35.1455 18.4489C35.1337 15.543 33.5623 14.0951 30.4315 14.1072C34.6368 14.0911 37.3734 11.7302 38.6431 7.02452C38.8837 6.16181 39.0019 5.37551 39 4.66564C38.9881 1.53655 36.6498 -0.0179426 31.987 0.000156224L8.12885 0.0926614L12.9257 3.34241L7.23967 3.36453L3.63758 16.6129C4.16399 16.4681 4.69041 16.3233 5.21682 16.1785C6.21247 15.7542 7.35205 15.6657 8.22152 14.9498C8.54683 14.7185 8.67498 14.4853 8.32601 14.1494C8.19786 14.0248 8.17025 13.7995 8.09731 13.6226C7.87846 13.3873 7.96521 13.0555 7.81537 12.7981C7.80551 12.6392 7.79566 12.4783 7.7858 12.3174C7.76805 12.239 7.75031 12.1606 7.73257 12.0821C7.51766 11.6015 7.87255 11.1651 7.85086 10.6986C7.76214 10.6463 7.71876 10.5699 7.71679 10.4713C7.51569 10.1496 7.60244 9.81979 7.68525 9.48797C7.66159 9.0174 7.98887 8.69967 8.22349 8.34372C8.26489 7.95158 8.24912 7.52324 8.80905 7.46291C8.90763 7.45286 8.93326 7.43275 8.95495 7.33421C9.09296 6.69271 9.32955 6.57406 9.92891 6.82342C10.0689 6.52177 10.2365 6.39709 10.5401 6.67863C10.7274 6.85157 10.9601 6.98028 11.171 7.12909C11.9084 7.38851 12.699 7.39253 13.4521 7.58156C14.0535 7.5695 14.6213 7.73239 15.1891 7.89326C16.0684 7.9556 16.8295 8.26328 17.419 8.92088C17.7246 8.68559 18.0321 8.45031 18.3397 8.21502C19.4024 7.15926 20.5518 6.26437 22.1863 6.28247C22.8093 6.17991 23.3535 6.3609 23.8503 6.71885C24.3018 6.60825 24.7513 6.38905 25.2245 6.64243C24.9642 7.113 24.5167 7.37845 24.0751 7.65396C23.9587 7.77462 23.9016 7.9174 23.9173 8.0823C23.9449 8.69565 23.7438 9.25671 23.4994 9.80772C23.2766 10.4392 23.0518 11.0706 22.829 11.7021C22.7758 12.0741 22.8625 12.3938 23.1425 12.6774C23.4264 12.967 23.5841 13.339 23.7221 13.7151C24.219 14.4652 24.633 15.2695 25.2186 15.9633C25.6188 16.4098 25.9067 16.9246 26.1531 17.4615C27.0817 18.9014 27.9926 20.3533 28.9449 21.7791C29.6507 22.8369 30.4117 23.8625 31.3482 24.7473C31.5415 24.9283 31.9634 25.065 31.778 25.3707C31.6144 25.6442 31.2576 25.4351 30.9914 25.3466C30.7844 25.2923 30.5754 25.24 30.3763 25.1897C30.2836 25.3144 30.3684 25.3928 30.3979 25.4793C30.4433 25.61 30.5083 25.7568 30.3979 25.8674C30.2796 25.9841 30.1298 25.8976 30.0016 25.8493C29.7749 25.7689 29.5502 25.6784 29.3727 25.5075C29.0257 25.4009 28.7694 25.1555 28.4855 24.9524C28.3692 25.1214 28.4914 25.2863 28.4973 25.4532C28.5939 25.6181 28.7753 25.783 28.6097 25.9821C28.454 26.1691 28.2174 26.1751 27.9946 26.1087C27.7047 26.0243 27.4149 25.9278 27.2217 25.6744C27.0561 25.5095 26.8925 25.3426 26.7268 25.1777C26.7268 25.3124 26.713 25.4491 26.7268 25.5819C26.7998 26.1912 26.7387 26.2375 26.0723 26.0665C25.6267 25.9459 25.3645 25.5718 25.0017 25.3345C24.8262 25.6704 24.5699 25.8131 24.1894 25.6502C23.6058 25.419 23.2588 24.9283 22.8586 24.4979C22.5806 24.7453 22.3046 25.0007 21.8905 24.7433C21.4785 24.685 21.2084 24.4638 21.0802 24.0797C20.9639 23.9228 20.7825 23.9248 20.6011 23.9268C20.3961 23.9288 20.1891 23.9309 20.0786 23.6996C19.9091 23.599 19.8085 23.4482 19.7336 23.2753C19.4438 22.9213 18.8405 23.2733 18.6039 22.8007C18.3969 22.5915 18.3358 22.316 18.2411 22.0546C18.1682 22.0546 18.0972 22.0928 18.0262 22.129C17.8902 22.1994 17.7522 22.2698 17.6043 22.0807C17.212 21.8274 17.2967 21.2924 16.9379 21.0189C16.6579 21.021 16.3977 20.9707 16.2597 20.6992C16.1374 20.4599 15.9383 20.472 15.7392 20.484C15.6308 20.4901 15.5243 20.4961 15.4257 20.4619C14.4024 20.108 13.4127 19.6937 12.488 19.1387C12.2396 19.0361 12.0779 18.8592 12.0011 18.6098C11.8906 18.5676 11.7802 18.5253 11.6698 18.4811C11.4214 18.3142 11.38 18.0367 11.2795 17.7913C11.2144 17.7652 11.1474 17.741 11.0803 17.7169C11.0369 17.6586 11.0113 17.5963 11.0271 17.5279C10.5894 17.1257 10.2168 17.6123 9.81259 17.6566C8.52711 18.3886 7.46048 19.3961 6.2933 20.2769C5.53819 20.8299 4.7811 21.3849 4.02598 21.938C3.91163 22.0003 3.79728 22.0647 3.6849 22.127C3.22355 22.499 2.81739 22.2597 2.47237 21.9701C2.3935 21.9018 2.31661 21.8334 2.23775 21.765L0 30V29.994Z" fill="white"/>
</svg>
