<svg width="158" height="33" viewBox="0 0 158 33" fill="none" xmlns="http://www.w3.org/2000/svg">
<g clip-path="url(#clip0_2893_7222)">
<path fill-rule="evenodd" clip-rule="evenodd" d="M42.6184 32.9149H43.4549C43.4748 32.0021 44.013 30.2987 44.013 29.3395H44.1996C44.276 29.6706 44.4473 29.9259 44.5849 30.2662L45.874 32.9134H46.7105C46.7961 31.8675 47.547 28.6248 47.547 27.8326H46.7105C46.7105 28.3401 46.5163 29.1075 46.4322 29.6211C46.3343 30.2198 46.1524 30.8356 46.1524 31.5024C45.9016 31.3167 45.8113 31.0042 45.6569 30.6871L44.2929 27.8326H43.4564C43.3708 28.8785 42.6199 32.1212 42.6199 32.9134L42.6184 32.9149Z" fill="#2155E6"/>
<path fill-rule="evenodd" clip-rule="evenodd" d="M55.8228 30.8449C55.8228 32.5281 57.2495 33.246 58.6808 32.8902C59.7742 32.6194 60.8262 31.5302 60.9363 30.1858H58.1471C58.1379 30.5989 58.0844 30.4782 58.0538 30.8449H59.9133C59.4821 31.6679 59.3124 32.1615 57.9606 32.1615C55.9833 32.1615 56.3656 28.5861 58.797 28.5861C59.4836 28.5861 59.6778 28.8878 59.9133 29.338H60.9363C60.317 26.646 55.8228 27.7243 55.8228 30.8433V30.8449Z" fill="#2155E6"/>
<path fill-rule="evenodd" clip-rule="evenodd" d="M144.069 32.2558C142.599 32.2558 142.778 29.6211 144.627 29.6211C146.045 29.6211 145.621 32.2558 144.069 32.2558ZM145.743 29.3395C143.78 28.009 142.209 29.7093 142.209 31.4096C142.209 32.5328 143.289 33.7287 145.185 32.4446C145.176 32.8793 144.962 32.8314 145.286 32.9165C145.337 32.9288 145.919 32.9165 146.022 32.9165C146.022 32.5096 146.863 27.7429 146.951 27.5541H146.022C146.022 28.0245 145.84 28.9218 145.743 29.3411V29.3395Z" fill="#2155E6"/>
<path fill-rule="evenodd" clip-rule="evenodd" d="M79.6275 32.2558C79.6504 31.982 79.7498 31.6091 79.7881 31.3833L80.2789 28.5861C81.2912 28.5861 83.0223 28.4329 82.4718 30.6159C82.0497 32.293 80.99 32.2543 79.6275 32.2543V32.2558ZM78.6978 32.9149H80.5572C83.5223 32.9149 85.1402 27.8342 80.8356 27.8342H79.5342C79.525 28.2302 79.4027 28.6263 79.3354 29.044C79.2697 29.4525 79.1886 29.8702 79.1091 30.3204L78.6978 32.9149Z" fill="#2155E6"/>
<path fill-rule="evenodd" clip-rule="evenodd" d="M62.8908 30.2817H62.5192C62.5192 29.6722 62.7501 29.0873 62.7975 28.4948C63.5208 28.4948 64.4719 28.4376 64.4719 29.1539C64.4719 30.0667 63.7991 30.2833 62.8908 30.2833V30.2817ZM61.2163 32.9149H62.0528C62.0665 32.2651 62.3311 31.62 62.3311 30.9392C63.1263 30.9392 62.9581 30.9006 63.1232 31.2672C63.2165 31.4761 63.2471 31.6091 63.3281 31.8134C63.481 32.2048 63.6324 32.508 63.7272 32.9149H64.7503L63.9138 30.8449C65.5363 30.4627 66.1892 27.8342 63.5422 27.8342H62.0543L61.4029 31.5968C61.3371 32.0021 61.2178 32.4786 61.2178 32.9149H61.2163Z" fill="#2155E6"/>
<path fill-rule="evenodd" clip-rule="evenodd" d="M95.7147 30.2817H95.3431C95.3431 29.6722 95.5725 29.0873 95.6214 28.4948C96.3447 28.4948 97.2959 28.4376 97.2959 29.1539C97.2959 30.0667 96.623 30.2833 95.7147 30.2833V30.2817ZM94.0417 32.9149H94.8782C94.892 32.2651 95.1565 31.62 95.1565 30.9392C96.0052 30.9392 95.759 30.8108 96.152 31.8134C96.3049 32.2048 96.4563 32.508 96.5511 32.9149H97.5742L96.7377 30.8449C97.0527 30.7706 97.4472 30.5726 97.6445 30.3513C98.3372 29.5762 98.6385 27.8342 96.3661 27.8342H94.8782C94.869 28.2302 94.7467 28.6263 94.6794 29.044C94.6121 29.4525 94.5326 29.8702 94.4531 30.3204L94.0417 32.9149Z" fill="#2155E6"/>
<path fill-rule="evenodd" clip-rule="evenodd" d="M68.2841 29.0579H68.4707C68.4707 29.8083 68.749 30.4209 68.749 31.2223H67.2611C67.4324 30.4766 68.1067 29.8268 68.2841 29.0579ZM65.4949 32.9149H66.3313C66.9843 31.6664 66.4246 31.8799 68.9355 31.8799C68.9631 33.1454 69.1374 32.9149 69.9586 32.9149C69.9586 32.4508 69.8347 32.0655 69.7598 31.6107L69.2827 28.9883C69.0594 27.8249 69.324 27.8357 68.2841 27.8357C68.0257 27.8357 67.4079 29.1523 67.1678 29.6226C66.8528 30.2337 65.5774 32.5575 65.4949 32.9164V32.9149Z" fill="#2155E6"/>
<path fill-rule="evenodd" clip-rule="evenodd" d="M105.572 30.8449C105.572 33.5368 109.136 33.6606 110.314 31.4096C109.624 31.4096 109.453 31.2796 109.078 31.6633C108.606 32.1475 108.43 32.1615 107.711 32.1615C105.734 32.1615 106.116 28.5861 108.548 28.5861C109.234 28.5861 109.427 28.8878 109.664 29.338H110.687C110.068 26.646 105.573 27.7243 105.573 30.8433L105.572 30.8449Z" fill="#2155E6"/>
<path fill-rule="evenodd" clip-rule="evenodd" d="M115.242 29.0579C115.242 30.1409 115.407 30.2709 116.811 30.8572C117.846 31.2904 117.886 32.2574 116.45 32.2574C115.955 32.2574 115.81 32.0037 115.799 31.5055H114.962C114.962 32.0377 114.926 32.3255 115.462 32.6937C116.348 33.3017 118.403 33.0774 118.403 31.4111C118.403 30.0837 116.079 30.0667 116.079 29.2467C116.079 28.3262 117.521 28.1482 117.752 29.1523H118.588C118.588 28.6882 118.489 28.4221 118.235 28.1916C117.446 27.4737 115.241 27.7847 115.241 29.0579H115.242Z" fill="#2155E6"/>
<path fill-rule="evenodd" clip-rule="evenodd" d="M86.4156 29.0579C86.4156 30.1409 86.5807 30.2709 87.9845 30.8572C88.2705 30.9764 88.6558 31.1295 88.7032 31.5287C88.7904 32.2744 88.0365 32.2574 87.6252 32.2574C87.1297 32.2574 86.9844 32.0037 86.9737 31.5055H86.1372C86.1372 32.0377 86.1006 32.3255 86.6373 32.6937C87.5227 33.3017 89.5779 33.0773 89.5779 31.4111C89.5779 30.0837 87.2536 30.0667 87.2536 29.2467C87.2536 28.3262 88.6956 28.1482 88.928 29.1523H89.7645C89.7645 27.1364 86.4171 27.6269 86.4171 29.0579H86.4156Z" fill="#2155E6"/>
<path fill-rule="evenodd" clip-rule="evenodd" d="M122.588 30.1873C122.633 29.652 122.824 29.0301 122.867 28.4948C123.59 28.4948 124.541 28.4376 124.541 29.1539C124.541 30.4024 123.327 30.1889 122.588 30.1889V30.1873ZM121.287 32.9149H122.124C122.133 32.4848 122.272 31.9294 122.344 31.4452C122.552 30.0512 123.407 31.4761 124.732 30.4751C125.448 29.9352 126.145 27.8357 123.611 27.8357H122.124C122.114 28.2318 121.992 28.6279 121.925 29.0456C121.859 29.454 121.778 29.8717 121.698 30.3219L121.287 32.9165V32.9149Z" fill="#2155E6"/>
<path fill-rule="evenodd" clip-rule="evenodd" d="M99.9932 32.9149C101.302 32.9149 100.828 33.2506 102.348 30.4999C102.477 30.2678 102.532 30.1069 102.66 29.8748C102.81 29.6041 102.882 29.5113 103.03 29.2142C103.256 28.764 103.599 28.3293 103.712 27.8342H102.876C102.512 28.5304 102.183 29.2235 101.79 29.9336L100.645 31.9727C100.632 31.3864 100.223 29.536 100.1 28.7609C99.9381 27.7414 100.129 27.8326 99.0649 27.8326C99.0741 28.2302 99.2072 28.6928 99.2897 29.1106C99.4579 29.963 99.9947 32.3549 99.9947 32.9134L99.9932 32.9149Z" fill="#2155E6"/>
<path fill-rule="evenodd" clip-rule="evenodd" d="M74.8857 32.9149H77.675C77.675 32.5436 77.704 32.5328 77.7683 32.2558H75.8155C75.8568 31.7561 76.051 31.1821 76.0938 30.6561H77.86V29.997H76.1871C76.2819 29.5824 76.4287 28.9388 76.4654 28.4917H78.4182C78.4273 28.0786 78.4809 28.1993 78.5114 27.8326H75.7222L75.0708 31.5952C75.005 32.0006 74.8857 32.4771 74.8857 32.9134V32.9149Z" fill="#2155E6"/>
<path fill-rule="evenodd" clip-rule="evenodd" d="M90.2292 32.9149H93.0185C93.0185 32.5436 93.0475 32.5328 93.1118 32.2558H91.159C91.2003 31.7561 91.3945 31.1821 91.4388 30.6561H93.205V29.997H91.5306C91.6254 29.5824 91.7722 28.9388 91.8089 28.4917H93.7617C93.7708 28.0786 93.8244 28.1993 93.8549 27.8326H91.0657L90.4143 31.5952C90.3485 32.0006 90.2292 32.4771 90.2292 32.9134V32.9149Z" fill="#2155E6"/>
<path fill-rule="evenodd" clip-rule="evenodd" d="M111.058 32.9149H113.848C113.848 32.5436 113.877 32.5328 113.941 32.2558H111.988C112.029 31.7561 112.224 31.1821 112.268 30.6561H114.034V29.997H112.36C112.454 29.5824 112.601 28.9388 112.638 28.4917H114.591C114.6 28.0786 114.653 28.1993 114.684 27.8326H111.895C111.809 28.8785 111.058 32.1212 111.058 32.9134V32.9149Z" fill="#2155E6"/>
<path fill-rule="evenodd" clip-rule="evenodd" d="M51.9172 32.9149H54.7065C54.7065 32.5436 54.7355 32.5328 54.7997 32.2558H52.847C52.8883 31.7561 53.0825 31.1821 53.1253 30.6561H54.8915V29.997H53.217C53.3119 29.5824 53.4587 28.9388 53.4969 28.4917H55.4497C55.4588 28.0786 55.5123 28.1993 55.5429 27.8326H52.7537C52.6681 28.8785 51.9172 32.1212 51.9172 32.9134V32.9149Z" fill="#2155E6"/>
<path fill-rule="evenodd" clip-rule="evenodd" d="M126.774 32.9149C127.857 32.9149 127.499 33.0928 128.664 30.9686C128.87 30.5927 129.037 30.308 129.224 29.9352C129.421 29.5422 129.656 29.2792 129.75 28.8692H128.913C128.62 29.3132 127.454 31.8397 127.147 32.0671C127.147 31.1218 126.682 29.6211 126.682 28.8692H125.752C125.778 29.1941 125.879 29.5623 125.947 29.8965C126.019 30.257 126.075 30.5865 126.164 30.9934C126.242 31.3461 126.323 31.6989 126.381 31.9975C126.454 32.3811 126.422 32.9149 126.775 32.9149H126.774Z" fill="#2155E6"/>
<path fill-rule="evenodd" clip-rule="evenodd" d="M48.2915 28.4932H49.5944L48.8497 32.9149C49.6739 32.9149 49.7121 33.1145 49.813 32.3842C49.8696 31.9712 49.9767 31.4421 50.0455 31.0197C50.1296 30.5122 50.1969 30.1935 50.284 29.6613C50.5119 28.2596 50.1785 28.4917 51.8255 28.4917C51.8346 28.0786 51.8881 28.1993 51.9187 27.8326H48.4781C48.3909 28.0183 48.3435 28.2674 48.2915 28.4917V28.4932Z" fill="#2155E6"/>
<path fill-rule="evenodd" clip-rule="evenodd" d="M71.2598 28.4933H72.5627L71.818 32.9149C72.6422 32.9149 72.6804 33.1145 72.7814 32.3843L73.3518 29.01C73.4573 28.3803 73.2906 28.4933 74.7923 28.4933C74.8014 28.0802 74.8549 28.2008 74.8855 27.8342H71.4449C71.3577 28.0198 71.3103 28.2689 71.2583 28.4933H71.2598Z" fill="#2155E6"/>
<path fill-rule="evenodd" clip-rule="evenodd" d="M140.333 28.8676C139.657 28.8707 139.856 28.9388 139.7 29.6226H140.165C140.139 30.817 139.119 32.9149 140.536 32.9149H141.466C141.466 32.5436 141.495 32.5328 141.559 32.2558C140.962 32.2558 141.03 32.2821 140.63 32.0671C140.647 31.2641 141.001 30.4534 141.001 29.6211H142.024C142.024 29.1724 142.087 29.2312 142.118 28.8692H141.188C141.194 28.5923 141.286 28.1126 141.374 27.9285H140.445L140.335 28.8661L140.333 28.8676Z" fill="#2155E6"/>
<path fill-rule="evenodd" clip-rule="evenodd" d="M130.569 28.8676C129.894 28.8707 130.092 28.9388 129.935 29.6226H130.4C130.374 30.817 129.354 32.9149 130.771 32.9149H131.701C131.701 32.5436 131.73 32.5328 131.794 32.2558C131.198 32.2558 131.267 32.2821 130.865 32.0671C130.883 31.2641 131.236 30.4534 131.236 29.6211H132.259C132.259 29.1724 132.322 29.2312 132.352 28.8692H131.423C131.429 28.5923 131.521 28.1126 131.609 27.9285H130.68L130.569 28.8661V28.8676Z" fill="#2155E6"/>
<path fill-rule="evenodd" clip-rule="evenodd" d="M136.258 32.9149H138.769C138.778 32.5018 138.831 32.6225 138.862 32.2558H137.188C137.215 31.9186 137.318 31.572 137.374 31.2208L137.758 28.9744C137.819 28.6062 137.932 28.272 137.932 27.8326H137.096L136.259 32.9134L136.258 32.9149Z" fill="#2155E6"/>
<path fill-rule="evenodd" clip-rule="evenodd" d="M103.526 32.9149H104.362L105.199 27.8342H104.362C104.353 28.2302 104.231 28.6263 104.163 29.044C104.096 29.4525 104.017 29.8702 103.937 30.3204L103.526 32.9149Z" fill="#2155E6"/>
<path fill-rule="evenodd" clip-rule="evenodd" d="M40.7588 32.9149H41.5953C41.6105 32.2264 42.4164 28.5335 42.4317 27.8342H41.5953L40.7588 32.9149Z" fill="#2155E6"/>
<path fill-rule="evenodd" clip-rule="evenodd" d="M146.858 32.4446C146.858 33.2321 147.974 33.0712 147.974 32.4446C147.974 32.1909 147.93 32.1847 147.881 31.9743C147.666 31.9217 147.47 31.7561 147.115 32.0454C147.029 32.115 146.858 32.3641 146.858 32.4446Z" fill="#2155E6"/>
<path fill-rule="evenodd" clip-rule="evenodd" d="M132.259 32.4446C132.259 32.5653 132.317 32.6921 132.387 32.7849C132.794 33.3249 133.375 32.706 133.375 32.4446C133.375 32.1831 133.331 32.1847 133.282 31.9743C133.066 31.9217 132.871 31.7561 132.516 32.0454C132.43 32.115 132.259 32.3641 132.259 32.4446Z" fill="#2155E6"/>
<path fill-rule="evenodd" clip-rule="evenodd" d="M0 24.7059L18.5047 24.6347C22.9531 24.6177 25.7362 22.5848 26.8525 18.5375C27.1262 17.4994 27.2608 16.5944 27.2577 15.8239C27.2486 13.5883 26.0298 12.4744 23.5999 12.4837C26.8617 12.4713 28.9857 10.655 29.9705 7.03474C30.1571 6.37102 30.2488 5.7661 30.2473 5.21997C30.2381 2.81266 28.4245 1.61674 24.808 1.63066L6.3033 1.70183L10.27 4.20197L5.64575 4.21899L0 24.7044V24.7059ZM15.1435 6.60619L16.6085 6.6C18.4833 6.59226 19.4222 7.10745 19.4268 8.14402C19.4268 8.32658 19.4008 8.52925 19.3457 8.75358C18.9405 10.1986 17.6284 10.9242 15.4096 10.9335L13.9446 10.9397L15.1435 6.60464V6.60619ZM13.073 14.1205L14.538 14.1143C16.3348 14.1066 17.2354 14.7193 17.24 15.9477C17.24 16.2354 17.1926 16.5572 17.0932 16.91C16.5901 18.782 15.2292 19.7226 13.0103 19.7319L11.5453 19.7381L13.0715 14.119L13.073 14.1205Z" fill="#2155E6"/>
<path fill-rule="evenodd" clip-rule="evenodd" d="M28.8374 24.5945L37.358 24.562L43.6629 1.5595L35.1422 1.59199L28.8374 24.5945Z" fill="#2155E6"/>
<path fill-rule="evenodd" clip-rule="evenodd" d="M42.5816 20.0785V20.1295C42.5984 23.1789 44.6628 24.6951 48.7733 24.6796C51.0701 24.6703 52.8822 24.4073 54.2126 23.889L54.049 24.4986L62.5696 24.4661L67.5272 6.40661L59.0066 6.4391L55.8045 18.0935C55.3121 19.9129 54.3166 20.8257 52.8195 20.8319C51.6986 20.8366 51.1374 20.3307 51.1328 19.3142C51.1328 18.9723 51.1909 18.5762 51.3117 18.1276L54.5123 6.45766L45.9917 6.49015L43.0037 17.4066C42.7223 18.3968 42.5816 19.2879 42.5801 20.08L42.5816 20.0785Z" fill="#2155E6"/>
<path fill-rule="evenodd" clip-rule="evenodd" d="M95.0818 24.3408L103.602 24.3083L108.56 6.2488L100.039 6.28129L95.0818 24.3408ZM109.907 1.30576L101.387 1.33825L100.37 5.04669L108.89 5.0142L109.909 1.30576H109.907Z" fill="#2155E6"/>
<path fill-rule="evenodd" clip-rule="evenodd" d="M107.278 24.2944L115.799 24.2619L118.689 13.7322C119.4 11.1532 120.894 9.85977 123.168 9.85049C123.786 9.8474 124.396 9.8706 125 9.91392C126.127 8.28017 127.627 7.02236 129.479 6.13122C128.115 6.08171 126.075 6.02292 125.017 6.02756C123.486 6.03375 122.012 6.29522 120.593 6.8135L120.757 6.20394L112.236 6.23643L107.277 24.2959L107.278 24.2944Z" fill="#2155E6"/>
<path fill-rule="evenodd" clip-rule="evenodd" d="M134.097 24.3516H134.157C135.653 24.3408 137.07 24.0639 138.413 23.5177L138.232 24.1768L146.753 24.1443L153.056 1.14022L144.536 1.17271L143.025 6.72686C141.968 6.21786 140.674 5.96568 139.145 5.97187C132.077 5.99972 127.779 8.82166 126.247 14.4392L125.837 15.9322C125.563 16.9378 125.422 17.8522 125.413 18.6768C125.405 22.4765 128.3 24.3686 134.097 24.3516ZM135.316 18.946C135.316 18.6149 135.38 18.2204 135.512 17.7609L136.94 12.5518C137.432 10.7354 138.428 9.82419 139.925 9.818C141.046 9.81336 141.607 10.3239 141.612 11.3481C141.612 11.6792 141.554 12.0737 141.433 12.5332L140.005 17.7423C139.501 19.5586 138.501 20.4699 137.003 20.4761C135.882 20.4807 135.321 19.9702 135.316 18.946Z" fill="#2155E6"/>
<path fill-rule="evenodd" clip-rule="evenodd" d="M78.4687 7.33024C78.4687 7.33024 78.6675 7.61491 79.1156 7.33798C79.5636 7.06104 79.0085 6.93418 79.0085 6.93418C79.0085 6.93418 78.4076 7.00999 78.4687 7.33024Z" fill="#2155E6"/>
<path fill-rule="evenodd" clip-rule="evenodd" d="M66.2444 24.4522L84.7491 24.381C89.1975 24.364 91.9806 22.3311 93.0969 18.2838C93.3706 17.2457 93.5052 16.3406 93.5036 15.5702C93.4945 13.3346 92.2757 12.2207 89.8474 12.23C93.1091 12.2176 95.2316 10.4013 96.2164 6.78101C96.403 6.1173 96.4947 5.51237 96.4932 4.96624C96.484 2.55893 94.6704 1.36301 91.0539 1.37693L72.5492 1.4481L76.2697 3.94824L71.8596 3.96526L69.0657 14.1577C69.474 14.0463 69.8823 13.9349 70.2906 13.8235C71.0628 13.497 71.9467 13.429 72.6211 12.8782C72.8734 12.7003 72.9728 12.5208 72.7021 12.2624C72.6027 12.1665 72.5813 11.9932 72.5247 11.8571C72.355 11.6761 72.4223 11.4208 72.3061 11.2228C72.2984 11.1006 72.2908 10.9768 72.2831 10.853C72.2694 10.7927 72.2556 10.7323 72.2418 10.672C72.0752 10.3022 72.3504 9.96652 72.3336 9.60759C72.2648 9.56737 72.2311 9.50858 72.2296 9.43277C72.0736 9.18523 72.1409 8.9315 72.2051 8.67623C72.1868 8.3142 72.4406 8.06976 72.6226 7.79592C72.6547 7.49423 72.6425 7.1647 73.0768 7.11828C73.1532 7.11055 73.1731 7.09508 73.1899 7.01927C73.297 6.52574 73.4805 6.43446 73.9454 6.6263C74.0539 6.39423 74.1839 6.29831 74.4194 6.51491C74.5647 6.64796 74.7451 6.74697 74.9087 6.86146C75.4807 7.06104 76.0939 7.06413 76.678 7.20956C77.1444 7.20028 77.5848 7.3256 78.0252 7.44937C78.7072 7.49733 79.2975 7.73403 79.7547 8.23994C79.9918 8.05893 80.2303 7.87792 80.4689 7.6969C81.2931 6.88467 82.1846 6.1962 83.4523 6.21012C83.9355 6.13122 84.3576 6.27046 84.7429 6.54585C85.0931 6.46076 85.4418 6.29212 85.8088 6.48706C85.6069 6.84908 85.2598 7.0533 84.9173 7.26526C84.827 7.35809 84.7827 7.46793 84.7949 7.59479C84.8163 8.06667 84.6604 8.49831 84.4707 8.92222C84.2979 9.40802 84.1236 9.89381 83.9508 10.3796C83.9095 10.6658 83.9768 10.9118 84.194 11.13C84.4142 11.3527 84.5365 11.639 84.6435 11.9283C85.0289 12.5053 85.35 13.1242 85.8042 13.6579C86.1146 14.0014 86.3379 14.3975 86.529 14.8105C87.2493 15.9183 87.9558 17.0353 88.6944 18.1322C89.2418 18.946 89.8321 19.735 90.5584 20.4158C90.7083 20.555 91.0355 20.6602 90.8918 20.8954C90.7649 21.1058 90.4881 20.9449 90.2816 20.8768C90.1211 20.835 89.959 20.7948 89.8045 20.7561C89.7327 20.852 89.7984 20.9124 89.8214 20.9789C89.8565 21.0795 89.907 21.1924 89.8214 21.2775C89.7296 21.3672 89.6134 21.3007 89.514 21.2636C89.3381 21.2017 89.1638 21.1321 89.0262 21.0006C88.757 20.9186 88.5583 20.7298 88.3381 20.5736C88.2478 20.7035 88.3426 20.8304 88.3472 20.9588C88.4222 21.0857 88.5628 21.2125 88.4344 21.3657C88.3136 21.5096 88.1301 21.5142 87.9573 21.4632C87.7325 21.3982 87.5077 21.3239 87.3578 21.129C87.2294 21.0021 87.1025 20.8737 86.974 20.7468C86.974 20.8505 86.9633 20.9557 86.974 21.0578C87.0306 21.5266 86.9832 21.5622 86.4663 21.4307C86.1207 21.3378 85.9174 21.0501 85.636 20.8675C85.4999 21.1259 85.3011 21.2357 85.006 21.1104C84.5533 20.9325 84.2842 20.555 83.9738 20.2239C83.7581 20.4142 83.5441 20.6107 83.2229 20.4127C82.9033 20.3678 82.6938 20.1976 82.5944 19.9021C82.5042 19.7814 82.3635 19.783 82.2228 19.7845C82.0638 19.7861 81.9032 19.7876 81.8176 19.6097C81.6861 19.5323 81.6081 19.4163 81.55 19.2833C81.3252 19.011 80.8573 19.2817 80.6738 18.9181C80.5132 18.7572 80.4658 18.5453 80.3924 18.3442C80.3358 18.3442 80.2808 18.3736 80.2257 18.4014C80.1202 18.4556 80.0132 18.5097 79.8985 18.3643C79.5942 18.1693 79.6599 17.7578 79.3816 17.5474C79.1645 17.5489 78.9626 17.5103 78.8556 17.3014C78.7608 17.1173 78.6063 17.1266 78.4519 17.1359C78.3678 17.1405 78.2852 17.1451 78.2087 17.1188C77.4151 16.8466 76.6474 16.5278 75.9302 16.1008C75.7376 16.0219 75.6122 15.8858 75.5525 15.694C75.4669 15.6615 75.3813 15.629 75.2956 15.5949C75.103 15.4665 75.0708 15.253 74.9929 15.0643C74.9424 15.0442 74.8904 15.0256 74.8384 15.007C74.8048 14.9622 74.7849 14.9142 74.7971 14.8616C74.4576 14.5522 74.1686 14.9266 73.8551 14.9606C72.8581 15.5238 72.0308 16.2989 71.1255 16.9765C70.5399 17.402 69.9527 17.829 69.367 18.2544C69.2783 18.3024 69.1896 18.3519 69.1024 18.3999C68.7446 18.6861 68.4296 18.502 68.162 18.2792C68.1008 18.2266 68.0412 18.174 67.98 18.1214L66.2444 24.4568V24.4522Z" fill="#2155E6"/>
<path fill-rule="evenodd" clip-rule="evenodd" d="M67.6937 9.90369L67.6909 9.89535L67.6937 9.90369Z" fill="#2155E6"/>
<path d="M156.001 0C156.338 0 156.665 0.0866385 156.986 0.261463C157.306 0.43474 157.555 0.685373 157.734 1.01027C157.913 1.33516 158.001 1.67398 158.001 2.02672C158.001 2.37947 157.914 2.7121 157.737 3.0339C157.561 3.35724 157.315 3.60633 156.997 3.78425C156.679 3.96371 156.347 4.0519 156.001 4.0519C155.656 4.0519 155.322 3.96371 155.004 3.78425C154.686 3.60633 154.44 3.35724 154.263 3.0339C154.085 2.7121 153.998 2.37637 153.998 2.02672C153.998 1.67707 154.088 1.33671 154.267 1.01027C154.448 0.685373 154.697 0.436287 155.016 0.261463C155.336 0.0866385 155.663 0 156.001 0ZM156.001 0.335724C155.72 0.335724 155.445 0.409986 155.179 0.555415C154.913 0.700844 154.705 0.909705 154.553 1.18045C154.403 1.4512 154.328 1.73432 154.328 2.02672C154.328 2.31913 154.403 2.59916 154.55 2.86526C154.697 3.13291 154.903 3.34177 155.169 3.4903C155.434 3.64037 155.712 3.71463 156.001 3.71463C156.29 3.71463 156.566 3.63882 156.832 3.4903C157.096 3.34177 157.303 3.13291 157.449 2.86526C157.596 2.59761 157.67 2.31913 157.67 2.02672C157.67 1.73432 157.595 1.4512 157.445 1.18045C157.295 0.909705 157.087 0.700844 156.819 0.555415C156.552 0.409986 156.28 0.335724 156 0.335724H156.001ZM155.122 3.14374V0.966948H155.862C156.116 0.966948 156.298 0.98706 156.411 1.02729C156.526 1.06751 156.614 1.13713 156.683 1.23769C156.751 1.33671 156.784 1.44346 156.784 1.5564C156.784 1.71421 156.728 1.85345 156.614 1.97103C156.503 2.08861 156.353 2.15513 156.166 2.1706C156.243 2.20309 156.304 2.24023 156.35 2.28509C156.437 2.37018 156.543 2.51406 156.668 2.71674L156.931 3.14219H156.509L156.316 2.79873C156.166 2.52799 156.044 2.35935 155.951 2.29128C155.888 2.24177 155.795 2.21702 155.673 2.21857H155.468V3.14219H155.12L155.122 3.14374ZM155.469 1.91842H155.891C156.093 1.91842 156.231 1.88748 156.304 1.82714C156.377 1.76681 156.414 1.68636 156.414 1.58734C156.414 1.52391 156.396 1.46512 156.361 1.41561C156.325 1.36456 156.277 1.32743 156.214 1.30267C156.151 1.27792 156.035 1.26554 155.864 1.26554H155.468V1.91997L155.469 1.91842Z" fill="#2155E6"/>
</g>
<defs>
<clipPath id="clip0_2893_7222">
<rect width="158" height="33" fill="white"/>
</clipPath>
</defs>
</svg>
