<svg width="160" height="32" viewBox="0 0 160 32" fill="none" xmlns="http://www.w3.org/2000/svg">
<g clip-path="url(#clip0_632_925)">
<mask id="mask0_632_925" style="mask-type:luminance" maskUnits="userSpaceOnUse" x="0" y="0" width="160" height="33">
<path d="M160 0.000167847H0V32.0002H160V0.000167847Z" fill="white"/>
</mask>
<g mask="url(#mask0_632_925)">
<path fill-rule="evenodd" clip-rule="evenodd" d="M23.8552 17.0483V27.1107H14.8728L21.1704 17.0923L23.8552 17.0483Z" fill="#0061A6"/>
<path fill-rule="evenodd" clip-rule="evenodd" d="M13.944 3.20017H23.8552V12.8402L9.6248 12.8138L7.3288 17.0034L16.3144 16.9754L10.1 27.1098H-0.052002V22.3098H11.816L14.56 17.8666H5.7504L13.944 3.20017Z" fill="#0061A6"/>
<path fill-rule="evenodd" clip-rule="evenodd" d="M-0.052002 3.20017H9.348L-0.052002 18.9202V3.20017Z" fill="#0061A6"/>
<path d="M155.026 5.95617L154.963 9.66737H144.163C143.776 9.6498 143.394 9.75722 143.073 9.97377C142.949 10.0498 142.846 10.1554 142.773 10.2811C142.701 10.4068 142.66 10.5486 142.656 10.6938L142.482 21.6906H138.178L138.35 8.24576C138.371 6.71936 139.29 5.95617 141.106 5.95617H155.026Z" fill="white"/>
<path d="M118.934 10.1218L118.758 21.6906H114.513L114.593 10.8906C114.6 10.7565 114.582 10.6222 114.538 10.4954C114.492 10.2644 114.369 10.0561 114.188 9.90519C114.008 9.7543 113.781 9.67005 113.546 9.66656H107.84C107.68 9.64561 107.517 9.6619 107.364 9.71416C107.211 9.76642 107.072 9.85324 106.959 9.96787C106.845 10.0825 106.759 10.2219 106.708 10.3751C106.656 10.5283 106.641 10.6913 106.663 10.8514L106.594 21.6898H102.29L102.434 5.95537H115.608C116.274 5.88855 116.944 6.05462 117.501 6.42537C118.059 6.79611 118.471 7.34862 118.668 7.98896C118.877 8.67947 118.968 9.40021 118.938 10.121" fill="white"/>
<path d="M100.695 5.93697L100.479 21.6914H96.1752L96.3912 5.93697H100.695Z" fill="white"/>
<path d="M82.2456 21.7106H78.0008L78.0808 10.9106C78.0875 10.7697 78.0666 10.6289 78.0192 10.4962C77.9727 10.2687 77.8494 10.0641 77.6699 9.91687C77.4905 9.76959 77.2658 9.68855 77.0336 9.68737H71.328C70.5643 9.68737 70.1763 10.0954 70.164 10.9114L70.084 21.7114H65.7816L65.9256 5.97777H91.2744C91.9347 5.91131 92.5977 6.07558 93.1506 6.44267C93.7035 6.80976 94.1122 7.35701 94.3072 7.99137C94.5163 8.68184 94.6077 9.40257 94.5776 10.1234L94.4072 21.7114H90.1624L90.2424 10.9114C90.2492 10.7705 90.2282 10.6297 90.1808 10.497C90.1343 10.2695 90.011 10.0649 89.8315 9.91766C89.6521 9.77038 89.4274 9.68935 89.1952 9.68817H83.4896C82.7264 9.68817 82.3384 10.0962 82.3256 10.9122L82.2456 21.7106Z" fill="white"/>
<path d="M59.632 15.353H52.8408C52.2221 15.353 51.908 15.6295 51.8984 16.1826L51.8696 16.853C51.8727 17.0142 51.8996 17.1741 51.9496 17.3274C52 17.5225 52.1166 17.6941 52.2794 17.8128C52.4422 17.9316 52.6412 17.9902 52.8424 17.9786H59.5944L59.632 15.353ZM64.0016 9.09456L63.8416 21.6906H50.5912C47.6096 21.8362 47.5752 21.0002 47.5752 18.6938L47.6168 13.3986C47.6221 12.214 48.2568 11.6218 49.5208 11.6218H59.668L59.6488 10.6938C59.6489 10.5798 59.6306 10.4666 59.5944 10.3586C59.515 10.1326 59.3605 9.94064 59.1567 9.81484C58.9528 9.68904 58.712 9.63698 58.4744 9.66737H47.6328L47.6752 5.95616H61.0208C61.6574 5.92738 62.2843 6.1201 62.7948 6.50152C63.3054 6.88295 63.6679 7.42951 63.8208 8.04817C63.9405 8.38397 64.0006 8.73808 63.9984 9.09456" fill="white"/>
<path d="M45.9696 17.9786L45.9272 21.6906H31.1408L31.1664 5.95617H35.4304L35.388 17.9786H45.9696Z" fill="white"/>
<path fill-rule="evenodd" clip-rule="evenodd" d="M157.583 5.95617H155.492L155.43 9.66737H157.52L157.583 5.95617Z" fill="white"/>
<path fill-rule="evenodd" clip-rule="evenodd" d="M158.941 5.95617H157.895L157.833 9.66737H158.878L158.941 5.95617Z" fill="white"/>
<path fill-rule="evenodd" clip-rule="evenodd" d="M159.959 5.95617H159.253L159.19 9.66737H159.897L159.959 5.95617Z" fill="white"/>
<path d="M132.438 15.353H125.643C125.025 15.353 124.71 15.6295 124.701 16.1826L124.672 16.853C124.675 17.0142 124.702 17.1741 124.752 17.3274C124.802 17.5225 124.919 17.6941 125.082 17.8128C125.245 17.9316 125.444 17.9902 125.645 17.9786H132.397L132.438 15.353ZM136.807 9.09456L136.647 21.6906H123.397C120.415 21.8362 120.381 21.0002 120.381 18.6938L120.422 13.3986C120.428 12.214 121.062 11.6218 122.326 11.6218H132.474L132.454 10.6938C132.455 10.5798 132.436 10.4666 132.4 10.3586C132.321 10.1326 132.166 9.94064 131.962 9.81484C131.758 9.68904 131.518 9.63698 131.28 9.66737H120.438L120.481 5.95616H133.826C134.463 5.92738 135.09 6.1201 135.6 6.50152C136.111 6.88295 136.474 7.42951 136.626 8.04817C136.746 8.38396 136.806 8.73808 136.804 9.09456" fill="white"/>
<path d="M31.2296 24.4866H31.62C31.6572 24.4851 31.6938 24.4961 31.724 24.5178C31.7508 24.5377 31.7704 24.5658 31.78 24.5978L32.5 27.013C32.5128 27.057 32.5248 27.1034 32.5352 27.1538C32.5456 27.2042 32.5552 27.2562 32.5648 27.3138C32.576 27.2586 32.5872 27.2058 32.5984 27.1538C32.6086 27.1067 32.6214 27.0602 32.6368 27.0146L33.4544 24.5994C33.4658 24.5678 33.4857 24.5401 33.512 24.5194C33.5409 24.496 33.5773 24.4838 33.6144 24.485H33.7504C33.7874 24.4831 33.8239 24.4941 33.8536 24.5162C33.8799 24.5367 33.8997 24.5645 33.9104 24.5962L34.7224 27.0114C34.7552 27.1058 34.7819 27.2023 34.8024 27.3002C34.812 27.2468 34.8208 27.1959 34.8288 27.1474C34.8365 27.1014 34.8472 27.056 34.8608 27.0114L35.5808 24.5962C35.59 24.5642 35.6094 24.5361 35.636 24.5162C35.6652 24.4935 35.7014 24.4816 35.7384 24.4826H36.1048L35.0208 27.957H34.5992L33.7192 25.3066C33.6993 25.2495 33.683 25.1913 33.6704 25.1322L33.648 25.225C33.6408 25.2546 33.6328 25.2826 33.624 25.305L32.7392 27.9554H32.3176L31.2296 24.4866ZM39.5128 24.4866V24.8698H37.844V26.0242H39.1944V26.393H37.844V27.5786H39.512V27.9618H37.3712V24.4874L39.5128 24.4866ZM42.4544 26.0066H42.6312C42.6813 26.0085 42.7313 26.0006 42.7784 25.9834C42.8182 25.965 42.8533 25.9376 42.8808 25.9034L44.0376 24.5938C44.0664 24.5589 44.1014 24.5296 44.1408 24.5074C44.1806 24.4891 44.2242 24.4806 44.268 24.4826H44.668L43.344 25.9786C43.3142 26.0119 43.2824 26.0434 43.2488 26.073C43.2197 26.0982 43.1875 26.1194 43.1528 26.1362C43.1966 26.1498 43.2371 26.1721 43.272 26.2018C43.3102 26.2353 43.3458 26.2716 43.3784 26.3106L44.76 27.957H44.3528C44.326 27.9577 44.2991 27.9553 44.2728 27.9498C44.2539 27.9458 44.2356 27.9394 44.2184 27.9306C44.2024 27.9226 44.1878 27.912 44.1752 27.8994C44.1624 27.8866 44.1496 27.873 44.136 27.8586L42.936 26.4794C42.9184 26.4602 42.9024 26.4434 42.8864 26.429C42.8704 26.4147 42.8523 26.4028 42.8328 26.3938C42.8105 26.3834 42.7868 26.3764 42.7624 26.373C42.7298 26.3686 42.6969 26.3668 42.664 26.3674H42.452V27.9578H41.984V24.4834H42.452L42.4544 26.0066ZM48.1936 24.4866V24.8698H46.5256V26.0242H47.876V26.393H46.5256V27.5786H48.1936V27.9618H46.052V24.4874L48.1936 24.4866ZM51.8232 24.4866V24.8698H50.1552V26.0242H51.5056V26.393H50.1552V27.5786H51.8232V27.9618H49.6824V24.4874L51.8232 24.4866ZM53.8288 26.661V27.961H53.3608V24.4866H54.3864C54.5803 24.483 54.7737 24.5086 54.96 24.5626C55.1071 24.6064 55.2433 24.6805 55.36 24.7802C55.466 24.8725 55.5482 24.9888 55.6 25.1194C55.6545 25.261 55.6817 25.4116 55.68 25.5634C55.682 25.7156 55.6531 25.8666 55.5952 26.0074C55.5397 26.14 55.4549 26.2585 55.3472 26.3538C55.2285 26.456 55.0902 26.533 54.9408 26.5802C54.7613 26.6366 54.5738 26.6636 54.3856 26.6602L53.8288 26.661ZM53.8288 26.2874H54.3888C54.5096 26.2894 54.63 26.2713 54.7448 26.2338C54.8401 26.2022 54.9278 26.1513 55.0024 26.0842C55.0724 26.0211 55.1272 25.9428 55.1624 25.8554C55.1989 25.7618 55.2171 25.6622 55.216 25.5618C55.2214 25.4658 55.206 25.3697 55.1708 25.2802C55.1356 25.1907 55.0814 25.1099 55.012 25.0434C54.836 24.9058 54.6148 24.839 54.392 24.8562H53.832L53.8288 26.2874ZM58.024 27.9602V24.4858H59.132C59.318 24.4825 59.5036 24.5038 59.684 24.549C59.8215 24.583 59.951 24.6439 60.0648 24.7282C60.1618 24.8024 60.2378 24.9006 60.2856 25.013C60.3349 25.1335 60.3591 25.2628 60.3568 25.393C60.3573 25.477 60.3441 25.5605 60.3176 25.6402C60.2903 25.7203 60.2491 25.795 60.196 25.861C60.1382 25.932 60.0693 25.9934 59.992 26.0426C59.9026 26.0995 59.8056 26.1436 59.704 26.1738C59.9188 26.2047 60.119 26.3001 60.2784 26.4474C60.344 26.5174 60.3949 26.5998 60.4281 26.6898C60.4614 26.7798 60.4763 26.8755 60.472 26.9714C60.4738 27.1089 60.4465 27.2452 60.392 27.3714C60.3372 27.4928 60.2551 27.5998 60.152 27.6842C60.0388 27.7761 59.9086 27.8449 59.7688 27.8866C59.6007 27.9367 59.4259 27.961 59.2504 27.9586L58.024 27.9602ZM58.4944 26.377V27.5866H59.2456C59.3625 27.5888 59.4791 27.5731 59.5912 27.5402C59.6797 27.5145 59.7615 27.47 59.8312 27.4098C59.8922 27.3557 59.9391 27.2876 59.968 27.2114C59.9976 27.1304 60.0123 27.0448 60.0112 26.9586C60.0148 26.8778 59.9995 26.7973 59.9666 26.7234C59.9337 26.6496 59.884 26.5844 59.8216 26.533C59.6531 26.4167 59.4498 26.3616 59.2456 26.377H58.4944ZM58.4944 26.0426H59.1152C59.2314 26.0448 59.3472 26.0302 59.4592 25.9994C59.5463 25.9747 59.6278 25.9334 59.6992 25.8778C59.7616 25.8278 59.8103 25.7629 59.8408 25.689C59.8722 25.6129 59.888 25.5313 59.8872 25.449C59.8943 25.3649 59.8812 25.2804 59.8493 25.2024C59.8173 25.1244 59.7672 25.0551 59.7032 25.0002C59.5331 24.8918 59.3324 24.8415 59.1312 24.857H58.4912L58.4944 26.0426ZM63.3248 27.5874C63.457 27.5896 63.5882 27.5649 63.7104 27.5146C63.8203 27.4686 63.9186 27.399 63.9984 27.3106C64.0788 27.2196 64.1398 27.1132 64.1776 26.9978C64.22 26.8687 64.2408 26.7336 64.2392 26.5978V24.4858H64.7072V26.5978C64.7094 26.7886 64.6771 26.9783 64.612 27.1578C64.5518 27.3232 64.4584 27.4745 64.3376 27.6026C64.2148 27.7307 64.0662 27.8314 63.9016 27.8978C63.7183 27.9711 63.5222 28.0072 63.3248 28.0042C63.1274 28.0072 62.9313 27.9711 62.748 27.8978C62.5836 27.8311 62.435 27.7305 62.312 27.6026C62.191 27.4747 62.0976 27.3233 62.0376 27.1578C61.9721 26.9784 61.9396 26.7887 61.9416 26.5978V24.4858H62.4096V26.5922C62.4083 26.728 62.4294 26.8632 62.472 26.9922C62.5099 27.1075 62.5708 27.214 62.6512 27.305C62.7314 27.3933 62.83 27.4629 62.94 27.509C63.0612 27.5612 63.192 27.5879 63.324 27.5874H63.3248ZM68.1064 25.0274C68.0945 25.0483 68.0788 25.0667 68.06 25.0818C68.0416 25.0947 68.0193 25.1012 67.9968 25.1002C67.9615 25.0968 67.9281 25.0822 67.9016 25.0586C67.8572 25.0257 67.811 24.9953 67.7632 24.9674C67.6992 24.9307 67.6316 24.9004 67.5616 24.877C67.4694 24.8475 67.3728 24.8337 67.276 24.8362C67.1815 24.8343 67.0874 24.8484 66.9976 24.8778C66.9231 24.9026 66.8543 24.9421 66.7952 24.9938C66.742 25.0408 66.7 25.099 66.672 25.1642C66.6441 25.2316 66.6299 25.304 66.6304 25.377C66.6274 25.4627 66.6527 25.5471 66.7024 25.617C66.7534 25.684 66.8177 25.7398 66.8912 25.781C66.9761 25.829 67.0656 25.8684 67.1584 25.8986L67.464 26.0018C67.5707 26.0375 67.6725 26.0775 67.7696 26.1218C67.8662 26.1647 67.956 26.2216 68.036 26.2906C68.1154 26.36 68.1796 26.4449 68.2248 26.5402C68.2756 26.6543 68.2999 26.7785 68.296 26.9034C68.2963 27.0498 68.2692 27.195 68.216 27.3314C68.1661 27.4621 68.0889 27.5807 67.9896 27.6794C67.8848 27.7814 67.7601 27.8607 67.6232 27.9122C67.4654 27.971 67.298 27.9998 67.1296 27.997C66.9184 27.9995 66.7091 27.9575 66.5152 27.8738C66.3364 27.7968 66.175 27.6844 66.0408 27.5434L66.1768 27.3202C66.1897 27.3025 66.2057 27.2873 66.224 27.2754C66.2423 27.2635 66.2638 27.2574 66.2856 27.2578C66.3294 27.2621 66.3703 27.2813 66.4016 27.3122C66.4541 27.355 66.5089 27.3951 66.5656 27.4322C66.6411 27.4805 66.7215 27.5204 66.8056 27.5514C66.9145 27.5908 67.0298 27.6095 67.1456 27.6066C67.247 27.6082 67.3479 27.5925 67.444 27.5602C67.5261 27.5325 67.6018 27.4884 67.6664 27.4306C67.7269 27.3749 67.7744 27.3066 67.8056 27.2306C67.8389 27.1483 67.8555 27.0602 67.8544 26.9714C67.8584 26.8799 67.8335 26.7895 67.7832 26.713C67.7333 26.6442 67.6692 26.5869 67.5952 26.545C67.5119 26.4978 67.4236 26.46 67.332 26.4322L67.0264 26.3354C66.9226 26.3024 66.8206 26.2639 66.7208 26.2202C66.6238 26.1782 66.5341 26.1209 66.4552 26.0506C66.3754 25.9775 66.3117 25.8887 66.268 25.7898C66.2166 25.6676 66.192 25.5358 66.196 25.4034C66.196 25.2808 66.2205 25.1595 66.268 25.0466C66.3157 24.9317 66.3862 24.8278 66.4752 24.741C66.5719 24.6482 66.6861 24.5755 66.8112 24.5274C66.9578 24.4716 67.1136 24.4445 67.2704 24.4474C67.4516 24.445 67.6317 24.4762 67.8016 24.5394C67.9581 24.5985 68.1008 24.6892 68.2208 24.8058L68.1064 25.0274ZM70.2664 27.9586H69.796V24.4842H70.2664V27.9586ZM72.2528 24.4842C72.2848 24.4822 72.3168 24.4874 72.3464 24.4994C72.3734 24.5162 72.3968 24.5382 72.4152 24.5642L74.428 27.1826C74.4232 27.1402 74.42 27.1026 74.4184 27.0594C74.4168 27.0162 74.4184 26.9794 74.4184 26.945V24.4842H74.8304V27.9586H74.5904C74.5584 27.9597 74.5266 27.9531 74.4976 27.9394C74.4684 27.9231 74.443 27.9007 74.4232 27.8738L72.4136 25.2578C72.4136 25.2978 72.4192 25.3378 72.4208 25.3762C72.4224 25.4146 72.4208 25.4506 72.4208 25.4826V27.9578H72.0088V24.4834L72.2528 24.4842ZM78.6304 24.4842V24.8674H76.9624V26.0218H78.3128V26.3906H76.9624V27.5762H78.6304V27.9594H76.4896V24.485L78.6304 24.4842ZM81.8992 25.0274C81.8873 25.0483 81.8716 25.0668 81.8528 25.0818C81.8344 25.0947 81.8121 25.1012 81.7896 25.1002C81.7542 25.0968 81.7209 25.0822 81.6944 25.0586C81.65 25.0257 81.6038 24.9953 81.556 24.9674C81.492 24.9307 81.4244 24.9004 81.3544 24.877C81.2622 24.8475 81.1656 24.8337 81.0688 24.8362C80.9743 24.8343 80.8802 24.8484 80.7904 24.8778C80.7159 24.9026 80.6471 24.9421 80.588 24.9938C80.5347 25.0407 80.4926 25.0989 80.4648 25.1642C80.4372 25.2317 80.4233 25.304 80.424 25.377C80.421 25.4627 80.4463 25.5471 80.496 25.617C80.547 25.684 80.6113 25.7398 80.6848 25.781C80.7697 25.829 80.8592 25.8684 80.952 25.8986L81.2576 26.0018C81.3643 26.0375 81.4662 26.0775 81.5632 26.1218C81.6598 26.1647 81.7495 26.2216 81.8296 26.2906C81.909 26.3599 81.9733 26.4449 82.0184 26.5402C82.0692 26.6543 82.0935 26.7785 82.0896 26.9034C82.0899 27.0498 82.0628 27.195 82.0096 27.3314C81.9597 27.4621 81.8825 27.5807 81.7832 27.6794C81.6785 27.7814 81.5537 27.8607 81.4168 27.9122C81.259 27.971 81.0916 27.9998 80.9232 27.997C80.712 27.9995 80.5027 27.9575 80.3088 27.8738C80.13 27.7968 79.9686 27.6844 79.8344 27.5434L79.9704 27.3202C79.9833 27.3025 79.9993 27.2873 80.0176 27.2754C80.0359 27.2635 80.0574 27.2574 80.0792 27.2578C80.123 27.2621 80.1639 27.2813 80.1952 27.3122C80.2477 27.355 80.3025 27.3951 80.3592 27.4322C80.4347 27.4805 80.5151 27.5204 80.5992 27.5514C80.7081 27.5908 80.8234 27.6095 80.9392 27.6066C81.0406 27.6082 81.1415 27.5925 81.2376 27.5602C81.3198 27.5325 81.3954 27.4884 81.46 27.4306C81.5205 27.3749 81.568 27.3066 81.5992 27.2306C81.6325 27.1483 81.6491 27.0602 81.648 26.9714C81.652 26.8799 81.6271 26.7895 81.5768 26.713C81.5269 26.6442 81.4628 26.5869 81.3888 26.545C81.3051 26.4966 81.2163 26.4577 81.124 26.429L80.8184 26.3322C80.7146 26.2992 80.6126 26.2607 80.5128 26.217C80.4158 26.1749 80.3261 26.1177 80.2472 26.0474C80.1674 25.9743 80.1037 25.8855 80.06 25.7866C80.0086 25.6644 79.984 25.5326 79.988 25.4002C79.988 25.2776 80.0125 25.1563 80.06 25.0434C80.1077 24.9285 80.1782 24.8246 80.2672 24.7378C80.3639 24.645 80.4781 24.5723 80.6032 24.5242C80.7498 24.4684 80.9056 24.4413 81.0624 24.4442C81.2436 24.4418 81.4237 24.473 81.5936 24.5362C81.7501 24.5953 81.8928 24.686 82.0128 24.8026L81.8992 25.0274ZM85.2824 25.0274C85.2705 25.0483 85.2548 25.0667 85.236 25.0818C85.2176 25.0947 85.1953 25.1012 85.1728 25.1002C85.1375 25.0968 85.1041 25.0822 85.0776 25.0586C85.0331 25.0257 84.9869 24.9953 84.9392 24.9674C84.8752 24.9307 84.8076 24.9004 84.7376 24.877C84.6454 24.8475 84.5488 24.8337 84.452 24.8362C84.3575 24.8343 84.2634 24.8484 84.1736 24.8778C84.0991 24.9026 84.0303 24.942 83.9712 24.9938C83.9179 25.0407 83.8758 25.0989 83.848 25.1642C83.8201 25.2316 83.8059 25.304 83.8064 25.377C83.8034 25.4627 83.8287 25.5471 83.8784 25.617C83.9294 25.684 83.9937 25.7398 84.0672 25.781C84.1521 25.829 84.2416 25.8684 84.3344 25.8986L84.64 26.0018C84.7467 26.0375 84.8485 26.0775 84.9456 26.1218C85.0422 26.1647 85.1319 26.2216 85.212 26.2906C85.2914 26.36 85.3556 26.4449 85.4008 26.5402C85.4516 26.6543 85.4759 26.7785 85.472 26.9034C85.4723 27.0498 85.4452 27.195 85.392 27.3314C85.342 27.4621 85.2649 27.5807 85.1656 27.6794C85.0608 27.7814 84.9361 27.8607 84.7992 27.9122C84.6414 27.971 84.474 27.9998 84.3056 27.997C84.0944 27.9995 83.8851 27.9575 83.6912 27.8738C83.5124 27.7968 83.351 27.6844 83.2168 27.5434L83.3528 27.3202C83.3657 27.3025 83.3817 27.2873 83.4 27.2754C83.4183 27.2635 83.4398 27.2574 83.4616 27.2578C83.5054 27.2621 83.5463 27.2813 83.5776 27.3122C83.6301 27.355 83.6849 27.3951 83.7416 27.4322C83.8171 27.4804 83.8975 27.5204 83.9816 27.5514C84.0905 27.5908 84.2058 27.6095 84.3216 27.6066C84.423 27.6082 84.5239 27.5925 84.62 27.5602C84.7021 27.5325 84.7778 27.4884 84.8424 27.4306C84.9029 27.3749 84.9504 27.3066 84.9816 27.2306C85.0149 27.1483 85.0315 27.0602 85.0304 26.9714C85.0344 26.8799 85.0095 26.7895 84.9592 26.713C84.9093 26.6441 84.8452 26.5868 84.7712 26.545C84.6875 26.4966 84.5987 26.4577 84.5064 26.429L84.2008 26.3322C84.097 26.2992 83.995 26.2607 83.8952 26.217C83.7982 26.1749 83.7085 26.1177 83.6296 26.0474C83.5498 25.9743 83.4861 25.8855 83.4424 25.7866C83.391 25.6644 83.3664 25.5326 83.3704 25.4002C83.3704 25.2776 83.3949 25.1563 83.4424 25.0434C83.4901 24.9285 83.5606 24.8246 83.6496 24.7378C83.7463 24.6449 83.8605 24.5723 83.9856 24.5242C84.1322 24.4684 84.288 24.4413 84.4448 24.4442C84.626 24.4418 84.8061 24.473 84.976 24.5362C85.1325 24.5953 85.2752 24.686 85.3952 24.8026L85.2824 25.0274ZM89.0264 24.4842V24.8674H87.3584V26.0218H88.7088V26.3906H87.3584V27.5762H89.0264V27.9594H86.8856V24.485L89.0264 24.4842ZM92.2952 25.0274C92.2833 25.0483 92.2676 25.0667 92.2488 25.0818C92.2303 25.0947 92.2081 25.1012 92.1856 25.1002C92.1502 25.0968 92.1169 25.0822 92.0904 25.0586C92.0459 25.0257 91.9997 24.9953 91.952 24.9674C91.888 24.9307 91.8204 24.9004 91.7504 24.877C91.6582 24.8475 91.5616 24.8337 91.4648 24.8362C91.3703 24.8343 91.2762 24.8484 91.1864 24.8778C91.1119 24.9026 91.0431 24.9421 90.984 24.9938C90.9309 25.0408 90.8888 25.099 90.8608 25.1642C90.8329 25.2316 90.8187 25.304 90.8192 25.377C90.8162 25.4627 90.8415 25.5471 90.8912 25.617C90.9423 25.684 91.0065 25.7398 91.08 25.781C91.1649 25.829 91.2544 25.8684 91.3472 25.8986L91.6528 26.0018C91.7595 26.0375 91.8613 26.0775 91.9584 26.1218C92.055 26.1647 92.1448 26.2216 92.2248 26.2906C92.3042 26.36 92.3684 26.4449 92.4136 26.5402C92.4644 26.6543 92.4887 26.7785 92.4848 26.9034C92.4851 27.0498 92.458 27.195 92.4048 27.3314C92.3549 27.4621 92.2777 27.5807 92.1784 27.6794C92.0736 27.7814 91.9489 27.8607 91.812 27.9122C91.6542 27.971 91.4868 27.9998 91.3184 27.997C91.1072 27.9995 90.8979 27.9575 90.704 27.8738C90.5252 27.7968 90.3638 27.6844 90.2296 27.5434L90.3656 27.3202C90.3785 27.3025 90.3945 27.2873 90.4128 27.2754C90.4311 27.2635 90.4526 27.2574 90.4744 27.2578C90.5182 27.2621 90.5591 27.2813 90.5904 27.3122C90.6429 27.355 90.6977 27.3951 90.7544 27.4322C90.8299 27.4804 90.9104 27.5204 90.9944 27.5514C91.1033 27.5908 91.2186 27.6095 91.3344 27.6066C91.4358 27.6082 91.5367 27.5925 91.6328 27.5602C91.715 27.5325 91.7906 27.4884 91.8552 27.4306C91.9157 27.3749 91.9633 27.3066 91.9944 27.2306C92.0277 27.1483 92.0443 27.0602 92.0432 26.9714C92.0472 26.8799 92.0223 26.7895 91.972 26.713C91.9221 26.6441 91.858 26.5868 91.784 26.545C91.7001 26.4966 91.611 26.4577 91.5184 26.429L91.2128 26.3322C91.109 26.2992 91.007 26.2607 90.9072 26.217C90.8102 26.1749 90.7205 26.1177 90.6416 26.0474C90.5616 25.9762 90.4971 25.8893 90.452 25.7922C90.4006 25.67 90.376 25.5382 90.38 25.4058C90.38 25.2832 90.4045 25.1619 90.452 25.049C90.4997 24.9341 90.5702 24.8302 90.6592 24.7434C90.7559 24.6506 90.8701 24.5779 90.9952 24.5298C91.1418 24.474 91.2976 24.4469 91.4544 24.4498C91.6356 24.4474 91.8157 24.4786 91.9856 24.5418C92.1421 24.6009 92.2848 24.6916 92.4048 24.8082L92.2952 25.0274ZM96.5432 26.7026C96.5662 26.7416 96.5862 26.7822 96.6032 26.8242C96.62 26.8674 96.636 26.9106 96.652 26.9546C96.668 26.9098 96.6856 26.8658 96.7032 26.8242C96.7208 26.7826 96.7408 26.7442 96.764 26.6994L97.94 24.5634C97.9534 24.5338 97.9766 24.5098 98.0056 24.4954C98.037 24.4862 98.0697 24.4821 98.1024 24.4834H98.452V27.9578H98.04V25.4082C98.04 25.3746 98.04 25.3378 98.04 25.2986C98.04 25.2594 98.04 25.2186 98.0472 25.1802L96.852 27.3522C96.8371 27.3847 96.8133 27.4122 96.7832 27.4315C96.7531 27.4508 96.7181 27.461 96.6824 27.461H96.6144C96.5787 27.4609 96.5438 27.4506 96.5137 27.4313C96.4837 27.4121 96.4598 27.3846 96.4448 27.3522L95.228 25.173C95.2328 25.2146 95.2368 25.253 95.2392 25.297C95.2416 25.341 95.2392 25.377 95.2392 25.409V27.9618H94.8272V24.4874H95.1736C95.2063 24.4862 95.239 24.4902 95.2704 24.4994C95.2995 24.5138 95.3227 24.5378 95.336 24.5674L96.5432 26.7026ZM103.335 26.2226C103.338 26.4681 103.296 26.7122 103.211 26.9426C103.134 27.151 103.015 27.3415 102.862 27.5026C102.709 27.661 102.524 27.7854 102.32 27.8674C102.097 27.9559 101.86 28 101.62 27.997C101.381 28 101.144 27.956 100.922 27.8674C100.718 27.7851 100.533 27.6608 100.381 27.5026C100.227 27.3416 100.108 27.1511 100.031 26.9426C99.946 26.7122 99.904 26.4681 99.9072 26.2226C99.9041 25.977 99.9462 25.733 100.031 25.5026C100.109 25.2942 100.228 25.1038 100.381 24.9426C100.533 24.7835 100.718 24.6584 100.922 24.5754C101.143 24.4857 101.381 24.4411 101.62 24.4442C101.86 24.4412 102.098 24.4858 102.32 24.5754C102.524 24.6581 102.709 24.7833 102.862 24.9426C103.015 25.1038 103.134 25.2943 103.211 25.5026C103.295 25.7339 103.336 25.9788 103.332 26.225L103.335 26.2226ZM102.855 26.2226C102.858 26.0276 102.829 25.8335 102.768 25.6482C102.716 25.4893 102.632 25.3428 102.521 25.2178C102.413 25.1002 102.281 25.0081 102.133 24.9482C101.971 24.8834 101.798 24.8513 101.624 24.8538C101.451 24.8514 101.279 24.8835 101.118 24.9482C100.97 25.0082 100.837 25.1003 100.729 25.2178C100.617 25.3424 100.532 25.489 100.48 25.6482C100.419 25.8335 100.39 26.0276 100.393 26.2226C100.39 26.417 100.419 26.6106 100.48 26.7954C100.532 26.954 100.617 27.1 100.729 27.2242C100.837 27.342 100.969 27.4341 101.118 27.4938C101.279 27.5578 101.451 27.5896 101.624 27.5874C101.798 27.5897 101.971 27.5579 102.133 27.4938C102.281 27.4342 102.413 27.342 102.521 27.2242C102.632 27.0996 102.716 26.9537 102.768 26.7954C102.827 26.6112 102.856 26.4184 102.852 26.225L102.855 26.2226ZM104.39 24.4842H104.766C104.803 24.4827 104.839 24.4937 104.868 24.5154C104.894 24.5365 104.914 24.5641 104.926 24.5954L105.908 27.0466C105.932 27.1051 105.953 27.1649 105.97 27.2258C105.989 27.2906 106.007 27.3578 106.025 27.4274C106.039 27.3578 106.055 27.2906 106.073 27.2258C106.088 27.1648 106.108 27.1049 106.132 27.0466L107.109 24.5954C107.121 24.5643 107.141 24.5368 107.167 24.5154C107.196 24.4919 107.232 24.4797 107.269 24.481H107.647L106.231 27.9554H105.807L104.39 24.4842ZM109.461 27.9586H108.99V24.4842H109.461V27.9586ZM111.447 24.4842C111.479 24.4822 111.511 24.4874 111.541 24.4994C111.568 24.5162 111.591 24.5382 111.61 24.5642L113.622 27.1826C113.618 27.1402 113.614 27.1026 113.613 27.0594C113.611 27.0162 113.613 26.9794 113.613 26.945V24.4842H114.025V27.9586H113.785C113.753 27.9597 113.721 27.9531 113.692 27.9394C113.663 27.9231 113.637 27.9007 113.618 27.8738L111.608 25.2578C111.608 25.2978 111.614 25.3378 111.615 25.3762C111.617 25.4146 111.615 25.4506 111.615 25.4826V27.9578H111.203V24.4834L111.447 24.4842ZM117.233 27.617C117.319 27.6173 117.405 27.6128 117.491 27.6034C117.566 27.5955 117.64 27.5824 117.713 27.5642C117.78 27.5471 117.845 27.5254 117.909 27.4994C117.97 27.4746 118.032 27.4458 118.094 27.4138V26.6474H117.555C117.542 26.6481 117.528 26.6461 117.516 26.6415C117.503 26.637 117.492 26.63 117.482 26.621C117.473 26.6126 117.466 26.6024 117.461 26.5911C117.456 26.5798 117.453 26.5676 117.454 26.5554V26.289H118.52V27.6226C118.434 27.6849 118.343 27.7401 118.248 27.7874C118.151 27.8351 118.049 27.8742 117.945 27.9042C117.832 27.9368 117.716 27.9604 117.599 27.9746C117.466 27.9905 117.333 27.9982 117.199 27.9978C116.962 28.0003 116.726 27.956 116.506 27.8674C116.301 27.7847 116.116 27.6608 115.962 27.5034C115.808 27.3426 115.687 27.1521 115.608 26.9434C115.521 26.7135 115.477 26.4693 115.48 26.2234C115.477 25.9761 115.52 25.7305 115.606 25.4986C115.684 25.289 115.806 25.0982 115.962 24.9386C116.121 24.7795 116.312 24.656 116.522 24.5762C116.757 24.4875 117.007 24.4438 117.258 24.4474C117.386 24.4464 117.514 24.4563 117.641 24.477C117.753 24.4955 117.863 24.5247 117.97 24.5642C118.067 24.6007 118.161 24.6471 118.249 24.7026C118.334 24.7565 118.414 24.8178 118.489 24.8858L118.355 25.0994C118.345 25.1189 118.33 25.1352 118.311 25.1468C118.292 25.1583 118.271 25.1646 118.249 25.165C118.219 25.1637 118.189 25.1546 118.164 25.1386C118.123 25.1156 118.078 25.089 118.028 25.0586C117.97 25.0221 117.909 24.9907 117.846 24.965C117.763 24.932 117.678 24.9065 117.591 24.889C117.477 24.8665 117.36 24.856 117.243 24.8578C117.062 24.855 116.881 24.8874 116.712 24.953C116.559 25.0135 116.42 25.1072 116.307 25.2274C116.193 25.3517 116.105 25.4985 116.05 25.6586C115.988 25.8417 115.958 26.0341 115.961 26.2274C115.958 26.427 115.989 26.6257 116.054 26.8146C116.111 26.9771 116.201 27.1261 116.318 27.2522C116.43 27.3714 116.566 27.465 116.718 27.5266C116.881 27.5911 117.056 27.6232 117.232 27.621" fill="white"/>
</g>
</g>
<defs>
<clipPath id="clip0_632_925">
<rect width="160" height="32" fill="white"/>
</clipPath>
</defs>
</svg>
