<svg width="664" height="384" viewBox="0 0 664 384" fill="none" xmlns="http://www.w3.org/2000/svg">
<path fill-rule="evenodd" clip-rule="evenodd" d="M53.4283 27.2577H30.8594C14.2908 27.2577 0.859375 40.6892 0.859375 57.2577V353.316C0.859375 369.884 14.2909 383.316 30.8594 383.316H633.143C649.712 383.316 663.143 369.884 663.143 353.316V57.2577C663.143 40.6891 649.712 27.2577 633.143 27.2577H469.441L468.235 27.2576C459.815 27.2576 452.87 20.9424 451.879 12.7904H451.47C450.102 5.91581 444.036 0.734375 436.759 0.734375H228.048C220.771 0.734375 214.705 5.91581 213.336 12.7904H212.999C212.384 20.8831 205.622 27.2578 197.372 27.2578H53.502C53.4774 27.2578 53.4529 27.2578 53.4283 27.2577Z" fill="#030614"/>
</svg>
