<svg width="586" height="338" viewBox="0 0 586 338" fill="none" xmlns="http://www.w3.org/2000/svg">
<path fill-rule="evenodd" clip-rule="evenodd" d="M47.2016 23.3945H30.9141C14.3455 23.3945 0.914062 36.826 0.914062 53.3945V307.456C0.914062 324.025 14.3455 337.456 30.9141 337.456H555.083C571.651 337.456 585.083 324.025 585.083 307.456V53.3945C585.083 36.826 571.651 23.3945 555.083 23.3945H538.75C538.716 23.3948 538.682 23.3949 538.647 23.3949H413.164C405.738 23.3949 399.612 17.8246 398.738 10.6341H397.986C396.116 4.47931 390.397 0 383.631 0H203.075C196.309 0 190.59 4.47931 188.72 10.6341H188.035C187.492 17.7723 181.528 23.3953 174.25 23.3953H47.3498C47.3003 23.3953 47.2509 23.395 47.2016 23.3945Z" fill="#010411"/>
</svg>
