<svg width="21" height="16" viewBox="0 0 21 16" fill="none" xmlns="http://www.w3.org/2000/svg">
<g clip-path="url(#clip0_2201_7603)">
<mask id="mask0_2201_7603" style="mask-type:luminance" maskUnits="userSpaceOnUse" x="0" y="0" width="21" height="16">
<path d="M20.7575 0L0 0L0 16L20.7575 16L20.7575 0Z" fill="white"/>
</mask>
<g mask="url(#mask0_2201_7603)">
<path d="M13.1562 16.25H13.4059L13.4062 16.0003C13.4086 14.0514 14.184 12.1829 15.5621 10.8049C16.9403 9.42682 18.8088 8.65164 20.7578 8.64936L21.0075 8.64907V8.39936V7.60254V7.35289L20.7578 7.35254C18.8087 7.34978 16.9403 6.57416 15.5623 5.19578C14.1842 3.8174 13.4091 1.94878 13.4068 -0.000291625L13.4065 -0.25L13.1568 -0.25L12.36 -0.25L12.1093 -0.25L12.11 0.00066393C12.1144 1.64921 12.59 3.26213 13.4809 4.64926C14.1885 5.75103 15.1345 6.67385 16.2442 7.35254L0 7.35254H-0.25L-0.25 7.60254L-0.25 8.39873L-0.25 8.64873H0L16.2442 8.64873C15.1346 9.32701 14.1885 10.2495 13.4809 11.3509C12.5899 12.7379 12.1142 14.3508 12.11 15.9994L12.1094 16.25H12.36H13.1562Z" fill="black" stroke="black" stroke-width="0.5"/>
</g>
</g>
<defs>
<clipPath id="clip0_2201_7603">
<rect width="20.7575" height="16" fill="white"/>
</clipPath>
</defs>
</svg>
